<?xml version="1.0" encoding="utf-8"?><svg viewBox="0 0 194 51" xmlns="http://www.w3.org/2000/svg" xmlns:xlink="http://www.w3.org/1999/xlink"><style>:root>svg{display:none}:root>svg:target{display:block}</style><svg viewBox="0 0 34 34" id="facebook" xmlns="http://www.w3.org/2000/svg"><path d="M18.98 29.746V18.135h3.916l.582-4.546H18.98v-2.896c0-1.312.366-2.21 2.248-2.21h2.386V4.43a31.643 31.643 0 00-3.495-.18c-3.462 0-5.84 2.114-5.84 5.994v3.336h-3.891v4.546h3.9v11.62h4.692z"/></svg><svg viewBox="0 0 30 30" id="file" xmlns="http://www.w3.org/2000/svg"><path d="M17.5 16.25h-1.25V15a1.25 1.25 0 00-2.5 0v1.25H12.5a1.25 1.25 0 000 2.5h1.25V20a1.25 1.25 0 002.5 0v-1.25h1.25a1.25 1.25 0 000-2.5z"/><path d="M24.375 8.812h-8.75l-3.287-3.975a1.25 1.25 0 00-.963-.462h-5.75A3.087 3.087 0 002.5 7.412v15.175a3.088 3.088 0 003.125 3.038h18.75a3.088 3.088 0 003.125-3.038V11.85a3.088 3.088 0 00-3.125-3.038zM25 22.562a.574.574 0 01-.625.538H5.625A.575.575 0 015 22.562V7.412a.575.575 0 01.625-.537h5.162l3.25 3.975a1.25 1.25 0 00.963.463h9.375a.576.576 0 01.625.537v10.713z"/></svg><svg viewBox="0 0 36 36" id="instagram" xmlns="http://www.w3.org/2000/svg"><path d="M17.998 11.065a6.936 6.936 0 100 13.873 6.936 6.936 0 000-13.873zm0 11.44a4.506 4.506 0 110-9.01 4.506 4.506 0 010 9.01zM25.209 12.428a1.617 1.617 0 100-3.235 1.617 1.617 0 000 3.235z"/><path d="M30.8 9.166a6.907 6.907 0 00-3.95-3.948 9.909 9.909 0 00-3.279-.63c-1.445-.063-1.902-.08-5.565-.08-3.663 0-4.133 0-5.565.08a9.83 9.83 0 00-3.276.63 6.9 6.9 0 00-3.95 3.948 9.877 9.877 0 00-.628 3.28c-.064 1.442-.084 1.9-.084 5.564 0 3.663 0 4.13.084 5.565a9.893 9.893 0 00.629 3.28 6.915 6.915 0 003.95 3.949 9.876 9.876 0 003.278.675c1.444.063 1.902.082 5.565.082 3.663 0 4.133 0 5.565-.082a9.92 9.92 0 003.279-.628 6.922 6.922 0 003.95-3.95 9.877 9.877 0 00.628-3.279c.064-1.443.084-1.9.084-5.565 0-3.665 0-4.13-.084-5.565a9.872 9.872 0 00-.632-3.326zm-1.828 14.298a7.566 7.566 0 01-.466 2.532 4.48 4.48 0 01-2.568 2.567 7.476 7.476 0 01-2.505.466c-1.425.066-1.827.083-5.481.083-3.657 0-4.03 0-5.483-.083a7.437 7.437 0 01-2.503-.466 4.477 4.477 0 01-2.578-2.567 7.62 7.62 0 01-.467-2.503c-.064-1.425-.08-1.827-.08-5.481 0-3.656 0-4.03.08-5.483.01-.864.167-1.72.467-2.53a4.48 4.48 0 012.578-2.568 7.515 7.515 0 012.504-.467c1.426-.064 1.826-.082 5.482-.082 3.655 0 4.03 0 5.481.082a7.44 7.44 0 012.505.467 4.487 4.487 0 012.568 2.568c.295.802.453 1.649.466 2.503.065 1.427.081 1.827.081 5.483 0 3.654 0 4.047-.064 5.481h-.017v-.002z"/></svg><svg viewBox="0 0 28 28" id="like" xmlns="http://www.w3.org/2000/svg"><path d="M19.833 5.25c-2.45 0-4.608 1.225-5.833 3.15-1.225-1.925-3.383-3.15-5.833-3.15-3.85 0-7 3.15-7 7 0 6.942 12.833 14 12.833 14s12.833-7 12.833-14c0-3.85-3.15-7-7-7z"/></svg><svg viewBox="0 0 157 51" id="logos_google" xmlns="http://www.w3.org/2000/svg"><path d="M152.11 31.168l4.356 2.875c-1.414 2.061-4.795 5.598-10.641 5.598-7.258 0-12.664-5.56-12.664-12.633 0-7.527 5.463-12.633 12.053-12.633 6.629 0 9.876 5.22 10.927 8.037l.573 1.438-17.077 6.997c1.298 2.534 3.324 3.82 6.188 3.82 2.866 0 4.852-1.4 6.285-3.499zm-13.39-4.557l11.404-4.69c-.631-1.57-2.503-2.685-4.738-2.685-2.846 0-6.8 2.496-6.666 7.375zM124.927 1.497h5.501v36.99h-5.501V1.497zM116.255 15.359h5.31v22.466c0 9.323-5.558 13.162-12.13 13.162-6.189 0-9.913-4.123-11.308-7.47l4.871-2.005c.878 2.062 2.999 4.502 6.437 4.502 4.222 0 6.82-2.591 6.82-7.433v-1.815h-.191c-1.261 1.513-3.668 2.874-6.724 2.874-6.38 0-12.226-5.503-12.226-12.594 0-7.13 5.846-12.69 12.226-12.69 3.037 0 5.463 1.343 6.724 2.818h.191V15.36zm.382 11.687c0-4.463-2.999-7.716-6.82-7.716-3.858 0-7.106 3.253-7.106 7.716 0 4.406 3.248 7.602 7.106 7.602 3.821.019 6.82-3.196 6.82-7.602zM66.914 26.951c0 7.281-5.73 12.633-12.76 12.633-7.03 0-12.76-5.37-12.76-12.633 0-7.318 5.73-12.651 12.76-12.651 7.03 0 12.76 5.333 12.76 12.651zm-5.578 0c0-4.538-3.324-7.659-7.183-7.659-3.858 0-7.182 3.12-7.182 7.66 0 4.5 3.324 7.658 7.182 7.658 3.86 0 7.183-3.158 7.183-7.659zM94.784 27.008c0 7.28-5.73 12.632-12.76 12.632-7.03 0-12.76-5.352-12.76-12.632 0-7.319 5.73-12.633 12.76-12.633 7.03 0 12.76 5.295 12.76 12.633zm-5.597 0c0-4.539-3.324-7.66-7.183-7.66-3.858 0-7.182 3.121-7.182 7.66 0 4.5 3.324 7.659 7.182 7.659 3.878 0 7.183-3.177 7.183-7.66zM20.419 34.1c-8.004 0-14.27-6.393-14.27-14.316 0-7.924 6.266-14.316 14.27-14.316 4.317 0 7.469 1.683 9.8 3.84l3.839-3.802C30.81 2.424 26.474.078 20.418.078 9.455.078.229 8.93.229 19.784c0 10.855 9.226 19.705 20.19 19.705 5.923 0 10.393-1.929 13.888-5.522 3.591-3.555 4.7-8.548 4.7-12.595 0-1.267-.153-2.572-.325-3.536H20.419v5.257h13.009c-.383 3.291-1.433 5.541-2.98 7.073-1.872 1.872-4.833 3.933-10.03 3.933z"/></svg><svg viewBox="0 0 193 42" id="logos_microsoft" xmlns="http://www.w3.org/2000/svg"><path d="M192.953 18.876v-3.438h-4.214v-5.343l-.142.045-3.958 1.226-.078.024v4.049h-6.247v-2.255c0-1.05.232-1.854.689-2.39.453-.53 1.102-.8 1.93-.8.595 0 1.211.143 1.831.423l.156.07v-3.62l-.073-.027c-.579-.21-1.366-.317-2.341-.317-1.229 0-2.346.271-3.32.808a5.711 5.711 0 00-2.278 2.282c-.535.974-.806 2.1-.806 3.346v2.48h-2.935v3.437h2.935v14.48h4.212v-14.48h6.247v9.201c0 3.79 1.765 5.711 5.245 5.711.572 0 1.174-.068 1.789-.201.626-.136 1.051-.273 1.302-.418l.056-.033v-3.47l-.172.115c-.228.155-.513.28-.847.374-.335.096-.615.144-.832.144-.815 0-1.418-.223-1.793-.662-.379-.443-.57-1.218-.57-2.302v-8.46h4.214zM161.76 30.3c-1.528 0-2.734-.514-3.583-1.526-.855-1.017-1.288-2.466-1.288-4.308 0-1.899.433-3.386 1.288-4.42.85-1.029 2.044-1.55 3.549-1.55 1.461 0 2.624.498 3.456 1.481.837.989 1.262 2.464 1.262 4.386 0 1.945-.4 3.44-1.187 4.44-.783.992-1.959 1.497-3.497 1.497zm.188-15.293c-2.917 0-5.234.866-6.885 2.573-1.651 1.708-2.488 4.07-2.488 7.024 0 2.806.817 5.062 2.429 6.706 1.611 1.645 3.804 2.478 6.517 2.478 2.828 0 5.099-.878 6.75-2.61 1.651-1.729 2.487-4.07 2.487-6.954 0-2.849-.785-5.122-2.333-6.755-1.55-1.634-3.729-2.462-6.477-2.462zm-16.165 0c-1.984 0-3.625.514-4.879 1.527-1.261 1.02-1.901 2.357-1.901 3.975 0 .841.138 1.589.41 2.223a4.457 4.457 0 001.259 1.665c.558.466 1.419.954 2.56 1.451.959.4 1.675.738 2.129 1.005.445.26.76.523.938.78.173.25.261.592.261 1.015 0 1.204-.89 1.789-2.721 1.789-.679 0-1.454-.143-2.303-.427a8.605 8.605 0 01-2.358-1.211l-.175-.127v4.108l.064.03c.596.28 1.348.514 2.233.699.885.185 1.687.28 2.385.28 2.153 0 3.887-.517 5.152-1.537 1.273-1.027 1.919-2.395 1.919-4.07 0-1.208-.348-2.243-1.032-3.079-.68-.828-1.86-1.589-3.507-2.261-1.311-.533-2.151-.976-2.498-1.316-.334-.328-.504-.792-.504-1.38 0-.52.21-.938.64-1.276.433-.34 1.036-.513 1.792-.513.702 0 1.42.112 2.134.332.714.22 1.341.515 1.864.876l.172.119v-3.897l-.066-.029c-.483-.21-1.119-.388-1.893-.534a11.45 11.45 0 00-2.075-.217zm-17.761 15.292c-1.529 0-2.734-.513-3.584-1.525-.855-1.017-1.287-2.466-1.287-4.308 0-1.899.433-3.386 1.288-4.42.849-1.029 2.043-1.55 3.549-1.55 1.46 0 2.623.498 3.456 1.481.836.989 1.261 2.464 1.261 4.386 0 1.945-.399 3.44-1.187 4.44-.782.992-1.958 1.497-3.496 1.497zm.188-15.292c-2.918 0-5.235.866-6.886 2.573-1.65 1.708-2.488 4.07-2.488 7.024 0 2.807.818 5.062 2.429 6.706 1.612 1.645 3.805 2.478 6.518 2.478 2.827 0 5.098-.878 6.749-2.61 1.651-1.729 2.488-4.07 2.488-6.954 0-2.849-.785-5.122-2.334-6.755-1.55-1.634-3.729-2.462-6.476-2.462zm-15.768 3.534v-3.103h-4.161v17.918h4.161V24.19c0-1.558.349-2.838 1.037-3.806.68-.955 1.585-1.439 2.691-1.439.375 0 .796.062 1.251.186.451.123.778.257.971.398l.174.128v-4.25l-.067-.028c-.388-.167-.936-.251-1.63-.251-1.045 0-1.981.34-2.782 1.01-.704.589-1.212 1.396-1.601 2.403h-.044zm-11.612-3.534c-1.91 0-3.612.415-5.06 1.232a8.25 8.25 0 00-3.337 3.476c-.76 1.484-1.146 3.216-1.146 5.149 0 1.693.374 3.246 1.113 4.615.74 1.372 1.788 2.445 3.114 3.189 1.324.743 2.854 1.12 4.549 1.12 1.977 0 3.666-.4 5.019-1.19l.055-.032v-3.861l-.175.13a7.798 7.798 0 01-2.036 1.073c-.735.26-1.406.391-1.994.391-1.632 0-2.943-.518-3.894-1.537-.954-1.022-1.437-2.456-1.437-4.262 0-1.816.504-3.287 1.498-4.373.99-1.082 2.303-1.631 3.902-1.631 1.368 0 2.7.469 3.961 1.396l.175.128v-4.068l-.057-.033c-.474-.269-1.121-.49-1.925-.66a11.353 11.353 0 00-2.326-.252h.001zm-12.41.431h-4.16v17.918h4.16V15.439zm-2.037-7.632a2.49 2.49 0 00-1.773.704 2.339 2.339 0 00-.743 1.758c0 .686.247 1.266.735 1.722.485.456 1.084.687 1.78.687.697 0 1.298-.231 1.79-.686a2.262 2.262 0 00.744-1.723c0-.674-.244-1.259-.724-1.74-.48-.479-1.089-.722-1.81-.722zM76 14.116v19.24h4.246V8.355h-5.876l-7.47 18.57-7.25-18.57h-6.117v25h3.99v-19.24h.138l7.655 19.24h3.012l7.535-19.238H76zM19.574 19.827H0V0h19.574v19.827zM41.186 19.827H21.612V0h19.574v19.827zM19.573 41.725H0V21.9h19.573v19.826zM41.186 41.725H21.612V21.9h19.574v19.826z"/></svg><svg viewBox="0 0 194 49" id="logos_slack" xmlns="http://www.w3.org/2000/svg"><g clip-path="url(#gclip0_43_18)"><path d="M61.986 38.403l2.42-5.592c2.616 1.942 6.09 2.952 9.525 2.952 2.537 0 4.137-.971 4.137-2.447-.039-4.116-15.184-.893-15.301-11.222-.039-5.242 4.645-9.28 11.28-9.28 3.943 0 7.886.97 10.696 3.184l-2.264 5.708c-2.576-1.631-5.777-2.796-8.822-2.796-2.068 0-3.434.97-3.434 2.213.039 4.039 15.301 1.826 15.457 11.688 0 5.359-4.567 9.126-11.125 9.126-4.801 0-9.212-1.127-12.569-3.534zm92.863-7.611l6.675 3.689a14.565 14.565 0 01-12.765 7.456c-8.08 0-14.638-6.524-14.638-14.562s6.558-14.561 14.638-14.561c5.465 0 10.266 3.028 12.765 7.455l-6.675 3.689c-1.21-2.097-3.474-3.533-6.09-3.533-3.864 0-6.987 3.106-6.987 6.95 0 3.844 3.123 6.95 6.987 6.95 2.616 0 4.88-1.436 6.089-3.533h.001zM89.037.738h8.353v40.655h-8.353V.738zm75.765 0h8.354v23.88l9.446-11.222h10.227L181.158 26.91l12.608 14.484h-10.695L173.156 29.2v12.193h-8.354V.738zM122.216 30.87v-6.873c-1.21-2.02-3.708-3.572-6.518-3.572-3.865 0-6.987 3.106-6.987 6.95 0 3.844 3.122 6.95 6.987 6.95 2.81 0 5.308-1.475 6.518-3.455zm0-17.473h8.354v27.957h-8.354v-3.3c-1.366 2.29-4.762 3.883-8.314 3.883-7.339 0-13.116-6.524-13.116-14.6 0-8.077 5.777-14.523 13.116-14.523 3.552 0 6.948 1.592 8.314 3.883v-3.301zM10.344 30.83c0 2.835-2.303 5.127-5.153 5.127a5.171 5.171 0 01-3.644-1.5A5.12 5.12 0 01.039 30.83c0-2.835 2.303-5.126 5.152-5.126h5.153v5.126zm2.576 0c0-2.834 2.303-5.125 5.153-5.125 2.85 0 5.152 2.291 5.152 5.126v12.814c0 2.834-2.303 5.125-5.152 5.125a5.17 5.17 0 01-3.645-1.5 5.119 5.119 0 01-1.507-3.625V30.83zM18.073 10.251a5.171 5.171 0 01-3.645-1.5 5.12 5.12 0 01-1.507-3.626C12.92 2.291 15.223 0 18.073 0s5.152 2.29 5.152 5.125v5.126h-5.152zm0 2.602c2.85 0 5.152 2.29 5.152 5.125s-2.303 5.126-5.152 5.126H5.153a5.171 5.171 0 01-3.645-1.5A5.118 5.118 0 010 17.978c0-2.834 2.303-5.125 5.152-5.125h12.921zM38.722 17.978c0-2.834 2.303-5.125 5.152-5.125 2.85 0 5.153 2.29 5.153 5.125s-2.303 5.126-5.153 5.126h-5.152v-5.126zm-2.577 0c0 2.835-2.302 5.126-5.152 5.126a5.171 5.171 0 01-3.645-1.5 5.12 5.12 0 01-1.507-3.626V5.125C25.84 2.291 28.144 0 30.993 0c2.85 0 5.153 2.29 5.153 5.125V17.98zM30.993 38.52c2.85 0 5.153 2.29 5.153 5.125 0 2.834-2.303 5.125-5.153 5.125a5.17 5.17 0 01-3.645-1.5 5.12 5.12 0 01-1.507-3.625v-5.126h5.152zm0-2.564a5.173 5.173 0 01-3.645-1.5 5.118 5.118 0 01-1.507-3.625c0-2.835 2.303-5.126 5.152-5.126h12.92c2.85 0 5.153 2.291 5.153 5.126 0 2.834-2.303 5.126-5.153 5.126h-12.92z"/></g><defs><clipPath id="gclip0_43_18"><path fill="#fff" d="M0 0h194v49H0z"/></clipPath></defs></svg><svg viewBox="0 0 194 44" id="logos_wordpress" xmlns="http://www.w3.org/2000/svg"><path d="M112.516 17.196h-7.637V18c2.389 0 2.773.508 2.773 3.515v5.42c0 3.007-.384 3.557-2.773 3.557-1.834-.254-3.071-1.228-4.778-3.091l-1.962-2.117c2.644-.466 4.052-2.117 4.052-3.98 0-2.33-2.004-4.107-5.759-4.107h-7.508V18c2.388 0 2.772.508 2.772 3.515v5.42c0 3.007-.384 3.557-2.772 3.557v.804h8.489v-.804c-2.389 0-2.772-.55-2.772-3.557v-1.524h.724l4.736 5.885h12.415c6.101 0 8.746-3.217 8.746-7.071 0-3.853-2.645-7.029-8.746-7.029zm-17.875 6.902v-5.631h1.749c1.92 0 2.773 1.312 2.773 2.837 0 1.482-.854 2.794-2.773 2.794h-1.75zm18.003 5.886h-.299c-1.535 0-1.748-.381-1.748-2.329v-9.189h2.047c4.437 0 5.247 3.218 5.247 5.717 0 2.583-.81 5.801-5.247 5.801zm-47.482-4.319l2.943-8.639c.854-2.498.47-3.217-2.26-3.217v-.847h8.02v.847c-2.688 0-3.327.635-4.394 3.726l-4.864 14.481h-.554L59.7 18.762l-4.438 13.254h-.554l-4.735-14.481c-1.024-3.091-1.707-3.726-4.181-3.726v-.847h9.47v.847c-2.516 0-3.2.593-2.303 3.217l2.858 8.639 4.31-12.703h.81l4.224 12.703zm14.504 6.182c-4.693 0-8.532-3.43-8.532-7.623 0-4.149 3.84-7.58 8.532-7.58 4.693 0 8.532 3.431 8.532 7.58 0 4.193-3.839 7.623-8.532 7.623zm0-13.889c-3.924 0-5.29 3.514-5.29 6.267 0 2.795 1.365 6.267 5.29 6.267 3.968 0 5.333-3.472 5.333-6.267 0-2.753-1.365-6.267-5.333-6.267zM131.799 30.45v.846h-9.77v-.846c2.859 0 3.371-.72 3.371-4.955V18.72c0-4.236-.512-4.912-3.371-4.912v-.848h8.831c4.394 0 6.826 2.245 6.826 5.251 0 2.922-2.432 5.208-6.826 5.208h-2.432v2.074c0 4.236.512 4.956 3.371 4.956zm-.939-15.965h-2.432v7.369h2.432c2.389 0 3.499-1.652 3.499-3.642 0-2.032-1.11-3.727-3.499-3.727zm36.135 12.831l-.213.762c-.384 1.398-.854 1.906-3.883 1.906h-.598c-2.217 0-2.602-.509-2.602-3.514v-1.948c3.328 0 3.584.296 3.584 2.498h.811v-6.31h-.811c0 2.202-.256 2.498-3.584 2.498v-4.742h2.346c3.03 0 3.499.508 3.883 1.906l.214.804h.682l-.298-3.98h-12.544V18c2.389 0 2.774.508 2.774 3.515v5.42c0 2.75-.327 3.443-2.21 3.542-1.79-.272-3.019-1.241-4.701-3.077l-1.963-2.116c2.646-.467 4.054-2.118 4.054-3.981 0-2.329-2.006-4.107-5.76-4.107h-7.508V18c2.388 0 2.773.508 2.773 3.515v5.42c0 3.006-.384 3.557-2.773 3.557v.804h8.49v-.805c-2.389 0-2.773-.55-2.773-3.556V25.41h.725l4.735 5.885h17.534l.257-3.98h-.641zm-22.611-3.218v-5.631h1.749c1.92 0 2.774 1.312 2.774 2.837 0 1.482-.854 2.794-2.774 2.794h-1.749zm31.271 7.749c-1.706 0-3.2-.89-3.84-1.44-.213.212-.597.847-.682 1.44h-.811v-5.843h.854c.341 2.794 2.303 4.445 4.821 4.445 1.365 0 2.474-.761 2.474-2.032 0-1.1-.981-1.948-2.73-2.752l-2.432-1.143c-1.707-.805-2.987-2.203-2.987-4.065 0-2.033 1.92-3.769 4.565-3.769 1.409 0 2.602.509 3.328 1.101.213-.17.427-.635.555-1.144h.811v4.998h-.896c-.3-1.99-1.408-3.642-3.669-3.642-1.195 0-2.305.678-2.305 1.737 0 1.1.897 1.693 2.945 2.625l2.345 1.143c2.049.973 2.859 2.54 2.859 3.81 0 2.668-2.347 4.531-5.205 4.531zm13.14 0c-1.707 0-3.2-.89-3.84-1.44-.213.212-.597.847-.682 1.44h-.81v-5.843h.852c.341 2.794 2.304 4.445 4.821 4.445 1.365 0 2.475-.761 2.475-2.032 0-1.1-.981-1.948-2.731-2.752l-2.432-1.143c-1.706-.805-2.986-2.203-2.986-4.065 0-2.033 1.92-3.769 4.565-3.769 1.408 0 2.602.509 3.328 1.101.213-.17.426-.635.554-1.144h.811v4.998h-.896c-.299-1.99-1.408-3.642-3.669-3.642-1.194 0-2.304.678-2.304 1.737 0 1.1.896 1.693 2.944 2.625l2.346 1.143c2.048.973 2.858 2.54 2.858 3.81 0 2.668-2.346 4.531-5.204 4.531zM3.128 21.843c0 7.418 4.344 13.827 10.642 16.865L4.763 14.217a18.55 18.55 0 00-1.635 7.627zm31.627-.945c0-2.316-.838-3.92-1.558-5.169-.957-1.543-1.854-2.85-1.854-4.393 0-1.723 1.317-3.327 3.17-3.327.084 0 .164.01.246.015a18.889 18.889 0 00-12.75-4.919 18.894 18.894 0 00-15.775 8.447c.443.013.86.022 1.215.022 1.975 0 5.032-.238 5.032-.238 1.018-.06 1.137 1.424.121 1.544 0 0-1.023.12-2.161.178l6.875 20.298 4.132-12.3-2.942-7.998c-1.016-.06-1.98-.18-1.98-.18-1.017-.058-.897-1.602.12-1.543 0 0 3.118.238 4.973.238 1.974 0 5.032-.238 5.032-.238 1.018-.06 1.138 1.424.121 1.544 0 0-1.025.12-2.16.178l6.822 20.145 1.883-6.247c.816-2.591 1.438-4.453 1.438-6.057zM22.34 23.483L16.675 39.82a19.009 19.009 0 0011.604-.299 1.648 1.648 0 01-.135-.258l-5.804-15.78zm16.236-10.63c.08.597.127 1.237.127 1.927 0 1.901-.358 4.039-1.436 6.712L31.5 38.042c5.613-3.25 9.389-9.285 9.389-16.198 0-3.258-.839-6.322-2.313-8.991zM22.009 0C9.874 0 0 9.799 0 21.843 0 33.89 9.874 43.688 22.009 43.688s22.01-9.799 22.01-21.845C44.019 9.8 34.144 0 22.009 0zm0 42.686c-11.579 0-21-9.35-21-20.843 0-11.492 9.42-20.842 21-20.842 11.578 0 20.999 9.35 20.999 20.842 0 11.493-9.42 20.843-21 20.843z"/></svg><svg fill="none" viewBox="0 0 25 24" id="search" xmlns="http://www.w3.org/2000/svg"><path d="M11 19a8 8 0 100-16 8 8 0 000 16zM21 21l-4.35-4.35" stroke="#fff" stroke-opacity=".38" stroke-width="2" stroke-linecap="round" stroke-linejoin="round"/></svg><svg viewBox="0 0 36 36" id="twitter" xmlns="http://www.w3.org/2000/svg"><path d="M29.45 11.996c.019.262.019.523.019.784 0 7.988-6.08 17.192-17.19 17.192-3.423 0-6.603-.992-9.279-2.714.486.056.954.075 1.46.075 2.719.007 5.361-.903 7.501-2.581a6.054 6.054 0 01-5.65-4.19c.373.056.748.093 1.141.093.542 0 1.086-.075 1.591-.205A6.04 6.04 0 014.2 14.52v-.075c.805.449 1.74.73 2.73.767a6.034 6.034 0 01-2.695-5.031c0-1.122.299-2.151.822-3.048a17.186 17.186 0 0012.46 6.322 6.866 6.866 0 01-.15-1.384 6.039 6.039 0 016.041-6.042c1.74 0 3.311.729 4.415 1.908a11.935 11.935 0 003.834-1.46A6.03 6.03 0 0129 9.807a12.11 12.11 0 003.478-.936 12.968 12.968 0 01-3.029 3.125z"/></svg></svg>