<?xml version="1.0" encoding="utf-8"?><svg viewBox="0 0 194 64" xmlns="http://www.w3.org/2000/svg" xmlns:xlink="http://www.w3.org/1999/xlink"><style>:root>svg{display:none}:root>svg:target{display:block}</style><svg fill="none" viewBox="0 0 38 38" id="Antools-icon" xmlns="http://www.w3.org/2000/svg"><rect width="38" height="38" rx="8" fill="#FF6E30"/><path fill-rule="evenodd" clip-rule="evenodd" d="M19.965 12.436c-.333 0-.656.04-.965.118a9.12 9.12 0 011.996-4.76 8.67 8.67 0 017.637 8.609v6.326a9.165 9.165 0 01-8.53-4.687h3.828v-1.64a3.967 3.967 0 00-3.966-3.966z" fill="#fff"/><path fill-rule="evenodd" clip-rule="evenodd" d="M9.256 16.95A9.643 9.643 0 0119.52 7.328a10.105 10.105 0 00-2.598 7.379 2.985 2.985 0 00-1.014 2.245v.665h5.985-4.37c1.423 3.88 5.15 6.65 9.524 6.65.509 0 1.008-.037 1.497-.11v4.1h-6.65v-3.99h-5.986v3.99h-6.65V16.951z" fill="#fff"/></svg><svg fill="none" viewBox="0 0 20 22" id="Antools-logo" xmlns="http://www.w3.org/2000/svg"><path fill-rule="evenodd" clip-rule="evenodd" d="M10.964 5.436c-.332 0-.655.04-.964.118a9.12 9.12 0 011.996-4.76 8.67 8.67 0 017.637 8.609v6.326a9.165 9.165 0 01-8.53-4.687h3.828v-1.64a3.967 3.967 0 00-3.966-3.966z" fill="#fff"/><path fill-rule="evenodd" clip-rule="evenodd" d="M.256 9.95A9.643 9.643 0 0110.52.328a10.104 10.104 0 00-2.598 7.378 2.985 2.985 0 00-1.014 2.246v.665h5.985-4.37c1.422 3.88 5.15 6.65 9.524 6.65.509 0 1.008-.037 1.497-.11v4.1h-6.65v-3.99H6.906v3.99H.257V9.951z" fill="#fff"/></svg><svg fill="none" viewBox="0 0 30 30" id="download-icon" xmlns="http://www.w3.org/2000/svg"><path d="M17.5 16.25h-1.25V15a1.25 1.25 0 00-2.5 0v1.25H12.5a1.25 1.25 0 000 2.5h1.25V20a1.25 1.25 0 002.5 0v-1.25h1.25a1.25 1.25 0 000-2.5z" fill="#fff" fill-opacity=".38"/><path d="M24.375 8.812h-8.75l-3.287-3.975a1.25 1.25 0 00-.963-.462h-5.75A3.087 3.087 0 002.5 7.412v15.175a3.088 3.088 0 003.125 3.038h18.75a3.088 3.088 0 003.125-3.038V11.85a3.088 3.088 0 00-3.125-3.038zM25 22.562a.574.574 0 01-.625.538H5.625A.575.575 0 015 22.562V7.412a.575.575 0 01.625-.537h5.162l3.25 3.975a1.25 1.25 0 00.963.463h9.375a.576.576 0 01.625.537v10.713z" fill="#fff" fill-opacity=".38"/></svg><svg fill="none" viewBox="0 0 34 34" id="facebook" xmlns="http://www.w3.org/2000/svg"><path d="M18.98 29.746V18.135h3.916l.582-4.546H18.98v-2.896c0-1.312.366-2.21 2.248-2.21h2.386V4.43a31.643 31.643 0 00-3.495-.18c-3.462 0-5.84 2.114-5.84 5.994v3.336h-3.891v4.546h3.9v11.62h4.692z" fill="#fff" fill-opacity=".78"/></svg><svg fill="none" viewBox="0 0 64 64" id="figma-icon" xmlns="http://www.w3.org/2000/svg"><g opacity=".78"><path d="M42.667 42.667c5.89 0 10.666-4.776 10.666-10.667s-4.775-10.667-10.666-10.667S32 26.11 32 32s4.776 10.667 10.667 10.667z" fill="#19BCFE"/><path fill-rule="evenodd" clip-rule="evenodd" d="M21.333 64A10.667 10.667 0 0032 53.333V42.667H21.333a10.667 10.667 0 100 21.333z" fill="#09CF83"/><path fill-rule="evenodd" clip-rule="evenodd" d="M21.333 42.667H32V21.333H21.333a10.667 10.667 0 100 21.334z" fill="#A259FF"/><path fill-rule="evenodd" clip-rule="evenodd" d="M21.333 21.333H32V0H21.333a10.667 10.667 0 100 21.333z" fill="#F24E1E"/><path fill-rule="evenodd" clip-rule="evenodd" d="M42.667 21.333H32V0h10.667a10.667 10.667 0 010 21.333z" fill="#FF7262"/></g></svg><svg fill="none" viewBox="0 0 36 36" id="instagram" xmlns="http://www.w3.org/2000/svg"><path d="M17.998 11.065a6.936 6.936 0 100 13.873 6.936 6.936 0 000-13.873zm0 11.44a4.506 4.506 0 110-9.01 4.506 4.506 0 010 9.01zM25.209 12.428a1.617 1.617 0 100-3.235 1.617 1.617 0 000 3.235z" fill="#fff" fill-opacity=".78"/><path d="M30.8 9.166a6.907 6.907 0 00-3.95-3.948 9.909 9.909 0 00-3.279-.63c-1.445-.063-1.902-.08-5.565-.08-3.663 0-4.133 0-5.565.08a9.83 9.83 0 00-3.276.63 6.9 6.9 0 00-3.95 3.948 9.877 9.877 0 00-.628 3.28c-.064 1.442-.084 1.9-.084 5.564 0 3.663 0 4.13.084 5.565a9.893 9.893 0 00.629 3.28 6.915 6.915 0 003.95 3.949 9.876 9.876 0 003.278.675c1.444.063 1.902.082 5.565.082 3.663 0 4.133 0 5.565-.082a9.92 9.92 0 003.279-.628 6.922 6.922 0 003.95-3.95 9.877 9.877 0 00.628-3.279c.064-1.443.084-1.9.084-5.565 0-3.665 0-4.13-.084-5.565a9.872 9.872 0 00-.632-3.326zm-1.828 14.298a7.566 7.566 0 01-.466 2.532 4.48 4.48 0 01-2.568 2.567 7.476 7.476 0 01-2.505.466c-1.425.066-1.827.083-5.481.083-3.657 0-4.03 0-5.483-.083a7.437 7.437 0 01-2.503-.466 4.477 4.477 0 01-2.578-2.567 7.62 7.62 0 01-.467-2.503c-.064-1.425-.08-1.827-.08-5.481 0-3.656 0-4.03.08-5.483.01-.864.167-1.72.467-2.53a4.48 4.48 0 012.578-2.568 7.515 7.515 0 012.504-.467c1.426-.064 1.826-.082 5.482-.082 3.655 0 4.03 0 5.481.082a7.44 7.44 0 012.505.467 4.487 4.487 0 012.568 2.568c.295.802.453 1.649.466 2.503.065 1.427.081 1.827.081 5.483 0 3.654 0 4.047-.064 5.481h-.017v-.002z" fill="#fff" fill-opacity=".78"/></svg><svg fill="none" viewBox="0 0 65 64" id="invision-icon" xmlns="http://www.w3.org/2000/svg"><g opacity=".78" clip-path="url(#gclip0_38_6)"><path d="M0 4a4 4 0 014-4h57a4 4 0 014 4v55.823a4 4 0 01-4 4H4a4 4 0 01-4-4V4z" fill="#F06"/><path d="M22.118 20.538c2.056-.03 3.701-1.684 3.681-3.703-.02-2.02-1.697-3.643-3.754-3.633-2.056.01-3.718 1.649-3.718 3.668.002.486.101.966.293 1.414.192.448.472.854.824 1.195.353.341.77.61 1.23.792.458.182.95.273 1.444.267zM14.258 40.178a12.328 12.328 0 00-.335 2.755c0 3.23 1.783 5.373 5.574 5.373 3.143 0 5.694-1.832 7.527-4.794l-1.12 4.417h6.24l3.57-14.041c.891-3.56 2.617-5.405 5.238-5.405 2.062 0 3.344 1.259 3.344 3.34a6.431 6.431 0 01-.278 1.97l-1.839 6.457a9.49 9.49 0 00-.39 2.736c0 3.064 1.839 5.31 5.684 5.31 3.29 0 5.91-2.078 7.358-7.058l-2.452-.932c-1.227 3.339-2.285 3.941-3.12 3.941-.834 0-1.284-.546-1.284-1.641a7.161 7.161 0 01.278-1.698l1.786-6.293c.401-1.293.608-2.638.614-3.99 0-4.708-2.9-7.163-6.412-7.163-3.289 0-6.632 2.912-8.304 5.979l1.224-5.505h-9.529l-1.339 4.85h4.462L28.01 39.572c-2.159 4.707-6.12 4.784-6.618 4.674-.816-.181-1.336-.485-1.336-1.532.024-.847.155-1.689.39-2.504l4.18-16.286H14.04l-1.337 4.851h4.402l-2.847 11.404z" fill="#fff"/></g><defs><clipPath id="gclip0_38_6"><path fill="#fff" d="M0 0h65v63.823H0z"/></clipPath></defs></svg><svg fill="none" viewBox="0 0 28 28" id="like-icon" xmlns="http://www.w3.org/2000/svg"><path d="M19.833 5.25c-2.45 0-4.608 1.225-5.833 3.15-1.225-1.925-3.383-3.15-5.833-3.15-3.85 0-7 3.15-7 7 0 6.942 12.833 14 12.833 14s12.833-7 12.833-14c0-3.85-3.15-7-7-7z" fill="#fff" fill-opacity=".38"/></svg><svg fill="none" viewBox="0 0 193 42" id="microsoft-logo" xmlns="http://www.w3.org/2000/svg"><path d="M192.953 18.876v-3.438h-4.214v-5.343l-.142.045-3.958 1.226-.078.024v4.049h-6.247v-2.255c0-1.05.232-1.854.689-2.39.453-.53 1.102-.8 1.93-.8.595 0 1.211.143 1.831.423l.156.07v-3.62l-.073-.027c-.579-.21-1.366-.317-2.341-.317-1.229 0-2.346.271-3.32.808a5.711 5.711 0 00-2.278 2.282c-.535.974-.806 2.1-.806 3.346v2.48h-2.935v3.437h2.935v14.48h4.212v-14.48h6.247v9.201c0 3.79 1.765 5.711 5.245 5.711.572 0 1.174-.068 1.789-.201.626-.136 1.051-.273 1.302-.418l.056-.033v-3.47l-.172.115c-.228.155-.513.28-.847.374-.335.096-.615.144-.832.144-.815 0-1.418-.223-1.793-.662-.379-.443-.57-1.218-.57-2.302v-8.46h4.214zM161.76 30.3c-1.528 0-2.734-.514-3.583-1.526-.855-1.017-1.288-2.466-1.288-4.308 0-1.899.433-3.386 1.288-4.42.85-1.029 2.044-1.55 3.549-1.55 1.461 0 2.624.498 3.456 1.481.837.989 1.262 2.464 1.262 4.386 0 1.945-.4 3.44-1.187 4.44-.783.992-1.959 1.497-3.497 1.497zm.188-15.293c-2.917 0-5.234.866-6.885 2.573-1.651 1.708-2.488 4.07-2.488 7.024 0 2.806.817 5.062 2.429 6.706 1.611 1.645 3.804 2.478 6.517 2.478 2.828 0 5.099-.878 6.75-2.61 1.651-1.729 2.487-4.07 2.487-6.954 0-2.849-.785-5.122-2.333-6.755-1.55-1.634-3.729-2.462-6.477-2.462zm-16.165 0c-1.984 0-3.625.514-4.879 1.527-1.261 1.02-1.901 2.357-1.901 3.975 0 .841.138 1.589.41 2.223a4.457 4.457 0 001.259 1.665c.558.466 1.419.954 2.56 1.451.959.4 1.675.738 2.129 1.005.445.26.76.523.938.78.173.25.261.592.261 1.015 0 1.204-.89 1.789-2.721 1.789-.679 0-1.454-.143-2.303-.427a8.605 8.605 0 01-2.358-1.211l-.175-.127v4.108l.064.03c.596.28 1.348.514 2.233.699.885.185 1.687.28 2.385.28 2.153 0 3.887-.517 5.152-1.537 1.273-1.027 1.919-2.395 1.919-4.07 0-1.208-.348-2.243-1.032-3.079-.68-.828-1.86-1.589-3.507-2.261-1.311-.533-2.151-.976-2.498-1.316-.334-.328-.504-.792-.504-1.38 0-.52.21-.938.64-1.276.433-.34 1.036-.513 1.792-.513.702 0 1.42.112 2.134.332.714.22 1.341.515 1.864.876l.172.119v-3.897l-.066-.029c-.483-.21-1.119-.388-1.893-.534a11.45 11.45 0 00-2.075-.217zm-17.761 15.292c-1.529 0-2.734-.513-3.584-1.525-.855-1.017-1.287-2.466-1.287-4.308 0-1.899.433-3.386 1.288-4.42.849-1.029 2.043-1.55 3.549-1.55 1.46 0 2.623.498 3.456 1.481.836.989 1.261 2.464 1.261 4.386 0 1.945-.399 3.44-1.187 4.44-.782.992-1.958 1.497-3.496 1.497zm.188-15.292c-2.918 0-5.235.866-6.886 2.573-1.65 1.708-2.488 4.07-2.488 7.024 0 2.807.818 5.062 2.429 6.706 1.612 1.645 3.805 2.478 6.518 2.478 2.827 0 5.098-.878 6.749-2.61 1.651-1.729 2.488-4.07 2.488-6.954 0-2.849-.785-5.122-2.334-6.755-1.55-1.634-3.729-2.462-6.476-2.462zm-15.768 3.534v-3.103h-4.161v17.918h4.161V24.19c0-1.558.349-2.838 1.037-3.806.68-.955 1.585-1.439 2.691-1.439.375 0 .796.062 1.251.186.451.123.778.257.971.398l.174.128v-4.25l-.067-.028c-.388-.167-.936-.251-1.63-.251-1.045 0-1.981.34-2.782 1.01-.704.589-1.212 1.396-1.601 2.403h-.044zm-11.612-3.534c-1.91 0-3.612.415-5.06 1.232a8.25 8.25 0 00-3.337 3.476c-.76 1.484-1.146 3.216-1.146 5.149 0 1.693.374 3.246 1.113 4.615.74 1.372 1.788 2.445 3.114 3.189 1.324.743 2.854 1.12 4.549 1.12 1.977 0 3.666-.4 5.019-1.19l.055-.032v-3.861l-.175.13a7.798 7.798 0 01-2.036 1.073c-.735.26-1.406.391-1.994.391-1.632 0-2.943-.518-3.894-1.537-.954-1.022-1.437-2.456-1.437-4.262 0-1.816.504-3.287 1.498-4.373.99-1.082 2.303-1.631 3.902-1.631 1.368 0 2.7.469 3.961 1.396l.175.128v-4.068l-.057-.033c-.474-.269-1.121-.49-1.925-.66a11.353 11.353 0 00-2.326-.252h.001zm-12.41.431h-4.16v17.918h4.16V15.439zm-2.037-7.632a2.49 2.49 0 00-1.773.704 2.339 2.339 0 00-.743 1.758c0 .686.247 1.266.735 1.722.485.456 1.084.687 1.78.687.697 0 1.298-.231 1.79-.686a2.262 2.262 0 00.744-1.723c0-.674-.244-1.259-.724-1.74-.48-.479-1.089-.722-1.81-.722zM76 14.116v19.24h4.246V8.355h-5.876l-7.47 18.57-7.25-18.57h-6.117v25h3.99v-19.24h.138l7.655 19.24h3.012l7.535-19.238H76zM19.574 19.827H0V0h19.574v19.827zM41.186 19.827H21.612V0h19.574v19.827zM19.573 41.725H0V21.9h19.573v19.826zM41.186 41.725H21.612V21.9h19.574v19.826z" fill="#fff" fill-opacity=".2"/></svg><svg fill="none" viewBox="0 0 64 64" id="notion-icon" xmlns="http://www.w3.org/2000/svg"><g opacity=".78"><path fill-rule="evenodd" clip-rule="evenodd" d="M11.432 58.436l-6.879-8.57A11.506 11.506 0 012 42.66V11.63c0-3.909 3.127-7.152 7.161-7.428l31.903-2.178A10.398 10.398 0 0147.59 3.77l11.208 7.579C60.805 12.704 62 14.922 62 17.288v35.278c0 3.825-3.075 6.993-7.025 7.236l-35.408 2.18c-3.152.193-6.199-1.135-8.135-3.546z" fill="#fff"/><path d="M22.496 27.157v-.406c0-1.03.825-1.884 1.888-1.955l7.743-.517 10.707 15.768V26.208l-2.756-.367v-.193c0-1.042.844-1.902 1.92-1.957l7.045-.36v1.013a.99.99 0 01-.839.965l-1.695.287v22.411l-2.128.732c-1.777.611-3.756-.043-4.774-1.578L29.212 31.474v14.972l3.2.612-.045.297c-.14.93-.942 1.633-1.913 1.676l-7.958.354c-.105-1 .644-1.894 1.678-2.002l1.047-.11V27.31l-2.725-.153z" fill="#000"/><path fill-rule="evenodd" clip-rule="evenodd" d="M41.35 5.934L9.447 8.112c-1.91.13-3.392 1.666-3.392 3.518v31.03c0 1.74.599 3.43 1.702 4.804l6.879 8.57c1.112 1.385 2.862 2.148 4.673 2.036l35.408-2.18c1.815-.111 3.228-1.566 3.228-3.324V17.288a3.3 3.3 0 00-1.471-2.729L45.265 6.981a6.239 6.239 0 00-3.915-1.047zm-30.32 6.18c-.445-.329-.233-1.013.324-1.053l30.21-2.167a4.157 4.157 0 012.698.748l6.062 4.294c.23.163.122.515-.163.53l-31.993 1.74a4.153 4.153 0 01-2.694-.801l-4.445-3.291zm5.637 9.547c0-1.039.84-1.898 1.914-1.956l33.825-1.842c1.047-.057 1.928.748 1.928 1.76V50.17c0 1.038-.837 1.896-1.909 1.957l-33.611 1.912c-1.165.066-2.147-.829-2.147-1.956V21.661z" fill="#000"/></g></svg><svg fill="none" viewBox="0 0 64 64" id="phpstorm-icon" xmlns="http://www.w3.org/2000/svg"><g clip-path="url(#kclip0_50_181)"><path d="M36.206 13.897l-3.017-9.143L10.88 0 0 12.343l34.011 17.371 2.195-15.817z" fill="url(#kpaint0_linear_50_181)"/><path d="M25.6 37.851l-.64-19.017L0 12.343l6.126 36.663 19.474-.183V37.85z" fill="url(#kpaint1_linear_50_181)"/><path d="M20.206 37.486L21.394 22.4 39.497 3.84 55.68 6.766 64 27.52l-8.686 8.594-14.171-2.285-8.777 9.234-12.16-5.577z" fill="url(#kpaint2_linear_50_181)"/><path d="M39.497 3.84L13.532 26.88l5.028 29.623L40.137 64 64 49.737 39.497 3.84z" fill="url(#kpaint3_linear_50_181)"/><path d="M12.251 12.251H51.75V51.75H12.25V12.25z" fill="#000"/><path d="M16 44.343h14.811v2.468H16v-2.468zM15.817 17.371h6.674c3.932 0 6.309 2.286 6.309 5.669v.091c0 3.84-2.926 5.76-6.674 5.76h-2.743v4.938h-3.566V17.37zm6.491 8.229c1.829 0 2.835-1.097 2.835-2.469v-.091c0-1.646-1.097-2.469-2.926-2.469h-2.743V25.6h2.834zM29.714 31.451l2.103-2.56c1.463 1.189 3.017 2.012 4.937 2.012 1.463 0 2.377-.549 2.377-1.554v-.092c0-.914-.548-1.371-3.291-2.103-3.292-.823-5.486-1.737-5.486-5.028v-.092c0-3.017 2.377-4.937 5.76-4.937 2.377 0 4.48.731 6.126 2.103l-1.92 2.743c-1.463-1.006-2.926-1.646-4.297-1.646-1.372 0-2.103.64-2.103 1.463v.091c0 1.098.731 1.463 3.566 2.195 3.291.914 5.211 2.102 5.211 4.937v.091c0 3.292-2.469 5.12-6.034 5.12a11.267 11.267 0 01-6.949-2.743z" fill="#fff"/></g><defs><linearGradient id="kpaint0_linear_50_181" x1=".51" y1="42.831" x2="27.38" y2="7.338" gradientUnits="userSpaceOnUse"><stop offset=".016" stop-color="#765AF8"/><stop offset=".382" stop-color="#B345F1"/><stop offset=".758" stop-color="#FA3293"/><stop offset=".941" stop-color="#FF318C"/></linearGradient><linearGradient id="kpaint1_linear_50_181" x1="2.496" y1="44.232" x2="29.323" y2="8.796" gradientUnits="userSpaceOnUse"><stop offset=".016" stop-color="#765AF8"/><stop offset=".382" stop-color="#B345F1"/><stop offset=".758" stop-color="#FA3293"/><stop offset=".941" stop-color="#FF318C"/></linearGradient><linearGradient id="kpaint2_linear_50_181" x1="46.498" y1="42.428" x2="31.336" y2="6.444" gradientUnits="userSpaceOnUse"><stop offset=".183" stop-color="#765AF8"/><stop offset=".238" stop-color="#8655F6"/><stop offset=".345" stop-color="#9F4CF3"/><stop offset=".443" stop-color="#AE47F2"/><stop offset=".522" stop-color="#B345F1"/></linearGradient><linearGradient id="kpaint3_linear_50_181" x1="57.843" y1="52.424" x2="22.581" y2="25.157" gradientUnits="userSpaceOnUse"><stop offset=".016" stop-color="#765AF8"/><stop offset=".382" stop-color="#B345F1"/></linearGradient><clipPath id="kclip0_50_181"><path fill="#fff" d="M0 0h64v64H0z"/></clipPath></defs></svg><svg fill="none" viewBox="0 0 56 56" id="procreate-icon" xmlns="http://www.w3.org/2000/svg"><path d="M0 20.267c0-7.094 0-10.641 1.38-13.35A12.667 12.667 0 016.917 1.38C9.626 0 13.173 0 20.266 0h15.467c7.094 0 10.641 0 13.35 1.38a12.667 12.667 0 015.536 5.536C56 9.626 56 13.173 56 20.266v15.467c0 7.094 0 10.641-1.38 13.35a12.666 12.666 0 01-5.536 5.536C46.374 56 42.827 56 35.734 56H20.266c-7.094 0-10.641 0-13.35-1.38a12.667 12.667 0 01-5.536-5.536C0 46.374 0 42.827 0 35.734V20.266z" fill="#1E252B"/><path d="M15.733 28.8C7.933 34.54 6.4 42.933 6.4 49.933c.356-2.089 1.987-6.986 5.667-9.866 5.466-4.279 15.466-2.87 26.4-10.134 10.933-7.264 12-16.733 10.6-24-.973 7.012-4.293 10.068-8.867 12.8-9.933 5.934-16.133 3.934-24.467 10.067z" fill="url(#lpaint0_linear_50_199)"/><path d="M15.733 28.8C7.933 34.54 6.4 42.933 6.4 49.933c.356-2.089 1.987-6.986 5.667-9.866 5.466-4.279 15.466-2.87 26.4-10.134 10.933-7.264 12-16.733 10.6-24-.973 7.012-4.293 10.068-8.867 12.8-9.933 5.934-16.133 3.934-24.467 10.067z" fill="url(#lpaint1_linear_50_199)"/><path d="M6.493 47.064c.428-6.325 2.482-13.29 9.24-18.264 4.345-3.198 8.11-4.184 12.125-5.237 2.344-.615 4.773-1.252 7.453-2.363-.978.933-5.624 3.113-9.128 4.57-3.496 1.453-7.181 2.984-10.25 5.03-6.156 4.104-8.66 11.245-9.44 16.264z" fill="url(#lpaint2_linear_50_199)"/><path d="M6.493 47.064c.428-6.325 2.482-13.29 9.24-18.264 4.345-3.198 8.11-4.184 12.125-5.237 2.344-.615 4.773-1.252 7.453-2.363-.978.933-5.624 3.113-9.128 4.57-3.496 1.453-7.181 2.984-10.25 5.03-6.156 4.104-8.66 11.245-9.44 16.264z" fill="url(#lpaint3_linear_50_199)"/><path d="M44.435 24.742a13.86 13.86 0 01-2.568 1.991c-4.267 2.56-8.802 3.386-13.215 4.19-3.516.64-6.955 1.265-10.119 2.744C11.401 37 7.001 43.932 6.4 49.932v-.002c0-.458.007-.922.021-1.391.036-.744.113-1.568.24-2.446.942-4.935 3.503-11.447 9.272-15.293 2.443-1.628 5.275-2.93 8.092-4.127 2.478-.813 4.71-1.32 6.838-1.802 3.348-.759 6.435-1.459 9.804-3.204 7.068-3.663 8.92-11.19 8.422-15.617 1.057 5.61.63 12.51-4.654 18.692z" fill="url(#lpaint4_linear_50_199)"/><path d="M44.435 24.742a13.859 13.859 0 01-2.568 1.991c-4.267 2.56-8.802 3.386-13.215 4.19-3.516.64-6.955 1.265-10.119 2.744-4.102 1.917-7.3 5.024-9.391 8.46 1.845-2.593 4.656-5.49 8.125-6.594 3.384-1.077 6.613-1.188 9.966-1.303.962-.033 1.933-.067 2.922-.124 2.664-.97 5.456-2.275 8.312-4.173 2.461-1.635 4.422-3.382 5.968-5.191z" fill="url(#lpaint5_linear_50_199)"/><path d="M44.435 24.742a13.859 13.859 0 01-2.568 1.991c-4.267 2.56-8.802 3.386-13.215 4.19-3.516.64-6.955 1.265-10.119 2.744-4.102 1.917-7.3 5.024-9.391 8.46 1.845-2.593 4.656-5.49 8.125-6.594 3.384-1.077 6.613-1.188 9.966-1.303.962-.033 1.933-.067 2.922-.124 2.664-.97 5.456-2.275 8.312-4.173 2.461-1.635 4.422-3.382 5.968-5.191z" fill="url(#lpaint6_linear_50_199)"/><path d="M49.089 6.05a21.577 21.577 0 00-.022-.117c-.973 7.012-4.293 10.068-8.867 12.8a37.454 37.454 0 01-4.889 2.467c-.978.934-5.624 3.113-9.128 4.57h-.001c-.713.297-1.434.596-2.157.903 2.478-.813 4.71-1.32 6.838-1.802 3.348-.759 6.435-1.459 9.804-3.204 7.068-3.663 8.92-11.19 8.422-15.617z" fill="url(#lpaint7_linear_50_199)"/><path d="M49.089 6.05a21.577 21.577 0 00-.022-.117c-.973 7.012-4.293 10.068-8.867 12.8a37.454 37.454 0 01-4.889 2.467c-.978.934-5.624 3.113-9.128 4.57h-.001c-.713.297-1.434.596-2.157.903 2.478-.813 4.71-1.32 6.838-1.802 3.348-.759 6.435-1.459 9.804-3.204 7.068-3.663 8.92-11.19 8.422-15.617z" fill="url(#lpaint8_linear_50_199)"/><defs><linearGradient id="lpaint0_linear_50_199" x1="30.8" y1="32.4" x2="7.733" y2="48.933" gradientUnits="userSpaceOnUse"><stop stop-color="#FE5004"/><stop offset=".603" stop-color="#FFB915"/><stop offset="1" stop-color="#FFFC41"/></linearGradient><linearGradient id="lpaint1_linear_50_199" x1="21.667" y1="33.8" x2="21.8" y2="36.2" gradientUnits="userSpaceOnUse"><stop stop-color="#FD3E00"/><stop offset="1" stop-color="#FD4400" stop-opacity="0"/></linearGradient><linearGradient id="lpaint2_linear_50_199" x1="35.333" y1="20" x2="2.8" y2="48.933" gradientUnits="userSpaceOnUse"><stop stop-color="#005FC6"/><stop offset=".28" stop-color="#23A4DF"/><stop offset=".465" stop-color="#3AC2B7"/><stop offset=".641" stop-color="#60EC7A"/><stop offset=".819" stop-color="#CFFDBD"/><stop offset="1" stop-color="#D0FCB6"/></linearGradient><linearGradient id="lpaint3_linear_50_199" x1="28.733" y1="25.533" x2="25.933" y2="23" gradientUnits="userSpaceOnUse"><stop stop-color="#0061CB"/><stop offset="1" stop-color="#067EEA" stop-opacity="0"/></linearGradient><linearGradient id="lpaint4_linear_50_199" x1="49.2" y1="6" x2="6.4" y2="49.867" gradientUnits="userSpaceOnUse"><stop stop-color="#8E55F1"/><stop offset=".141" stop-color="#8B48DF"/><stop offset=".275" stop-color="#E04DD9"/><stop offset=".492" stop-color="#F496C8"/><stop offset=".633" stop-color="#FAD2BA"/><stop offset=".857" stop-color="#FEF7E5"/><stop offset="1" stop-color="#FFF5BF"/></linearGradient><linearGradient id="lpaint5_linear_50_199" x1="45" y1="24.333" x2="10.067" y2="40.133" gradientUnits="userSpaceOnUse"><stop stop-color="#F41A73"/><stop offset=".4" stop-color="#FC50A3"/><stop offset=".585" stop-color="#FE9485"/><stop offset=".703" stop-color="#FFAF88"/><stop offset="1" stop-color="#FFC385"/></linearGradient><linearGradient id="lpaint6_linear_50_199" x1="32.4" y1="29.2" x2="32.467" y2="32.4" gradientUnits="userSpaceOnUse"><stop stop-color="#9B0008"/><stop offset="1" stop-color="#EA115A" stop-opacity="0"/></linearGradient><linearGradient id="lpaint7_linear_50_199" x1="49.2" y1="9.6" x2="17.667" y2="30.2" gradientUnits="userSpaceOnUse"><stop stop-color="#231283"/><stop offset=".363" stop-color="#7053C6"/><stop offset=".466" stop-color="#7272DB"/><stop offset=".634" stop-color="#399EE9"/><stop offset="1" stop-color="#00CFFF"/></linearGradient><linearGradient id="lpaint8_linear_50_199" x1="41.333" y1="20" x2="42.733" y2="21.8" gradientUnits="userSpaceOnUse"><stop stop-color="#3F259D" stop-opacity="0"/><stop offset="1" stop-color="#412DAA"/></linearGradient></defs></svg><svg fill="none" viewBox="0 0 64 57" id="sketch-icon" xmlns="http://www.w3.org/2000/svg"><g clip-path="url(#mclip0_26_111)"><path d="M32 0L13.964 1.872 0 20.278l32 36.589 32-36.59L50.036 1.873 32 0z" fill="#FDB300"/><path d="M0 20.278l32 36.59-19.038-36.59H0zM51.038 20.278L32 56.868l32-36.59H51.038z" fill="#EB6C00"/><path d="M12.962 20.278L32 56.868l19.039-36.59H12.962z" fill="#FDAD00"/><path d="M13.964 1.872L12.96 20.278 32 0 13.964 1.872zM51.038 20.278L50.036 1.872 32 0l19.038 20.278z" fill="#FDD231"/><path d="M51.038 20.278H64L50.036 1.872l1.002 18.406zM0 20.278h12.961l1.003-18.406L0 20.278z" fill="#FDAD00"/><path d="M32 0L12.962 20.278h38.077L32 0z" fill="#FEEEB7"/></g><defs><clipPath id="mclip0_26_111"><path fill="#fff" d="M0 0h64v56.95H0z"/></clipPath></defs></svg><svg fill="none" viewBox="0 0 65 64" id="slack-icon" xmlns="http://www.w3.org/2000/svg"><g opacity=".78" clip-path="url(#nclip0_32_0)" fill-rule="evenodd" clip-rule="evenodd"><path d="M13.672 40.22c0 .877-.175 1.747-.517 2.559a6.674 6.674 0 01-1.477 2.17 6.812 6.812 0 01-2.21 1.449 6.911 6.911 0 01-2.608.507c-.894 0-1.78-.173-2.605-.509a6.813 6.813 0 01-2.21-1.449 6.673 6.673 0 01-1.474-2.17 6.575 6.575 0 01-.517-2.558c0-.878.175-1.748.517-2.56a6.673 6.673 0 011.476-2.169 6.812 6.812 0 012.21-1.449 6.911 6.911 0 012.606-.507h6.811v6.685h-.002zm3.404 0c0-.879.175-1.749.517-2.56a6.673 6.673 0 011.476-2.17 6.812 6.812 0 012.21-1.449 6.911 6.911 0 012.606-.507c.894-.001 1.78.171 2.606.507a6.812 6.812 0 012.21 1.45 6.673 6.673 0 011.476 2.169c.342.811.517 1.681.517 2.56v16.715c0 .879-.175 1.748-.517 2.56a6.672 6.672 0 01-1.476 2.17 6.813 6.813 0 01-2.21 1.449 6.913 6.913 0 01-2.606.507c-.895 0-1.78-.172-2.607-.508a6.814 6.814 0 01-2.21-1.449 6.672 6.672 0 01-1.475-2.17 6.576 6.576 0 01-.517-2.559V40.22z" fill="#E01E5A"/><path d="M23.885 13.374c-.895 0-1.78-.172-2.607-.508a6.815 6.815 0 01-2.21-1.45 6.674 6.674 0 01-1.476-2.17 6.576 6.576 0 01-.516-2.56c0-.879.175-1.748.517-2.56a6.673 6.673 0 011.476-2.17 6.813 6.813 0 012.21-1.449A6.912 6.912 0 0123.884 0c.894 0 1.78.172 2.606.507a6.813 6.813 0 012.21 1.45 6.673 6.673 0 011.476 2.17c.342.81.517 1.68.517 2.558v6.691h-6.806l-.003-.002zm0 3.393c.894 0 1.78.172 2.606.507a6.815 6.815 0 012.21 1.45 6.674 6.674 0 011.476 2.17c.342.81.517 1.68.517 2.558 0 .878-.175 1.748-.517 2.56a6.673 6.673 0 01-1.476 2.17 6.812 6.812 0 01-2.21 1.448 6.911 6.911 0 01-2.606.508H6.809c-.894 0-1.78-.172-2.606-.507a6.815 6.815 0 01-2.21-1.449 6.673 6.673 0 01-1.475-2.169 6.575 6.575 0 01-.001-5.117 6.672 6.672 0 011.476-2.17 6.813 6.813 0 012.21-1.449 6.913 6.913 0 012.606-.508h17.078l-.002-.002z" fill="#36C5F0"/><path d="M51.174 23.452c0-.878.175-1.748.517-2.56a6.672 6.672 0 011.476-2.17 6.812 6.812 0 012.211-1.448 6.91 6.91 0 012.607-.507c.895 0 1.78.172 2.607.507a6.815 6.815 0 012.21 1.45 6.674 6.674 0 011.475 2.17c.342.81.518 1.68.517 2.558 0 .878-.175 1.748-.517 2.56a6.673 6.673 0 01-1.476 2.17 6.812 6.812 0 01-2.21 1.448 6.911 6.911 0 01-2.606.508h-6.811v-6.686zm-3.405 0c.001.878-.175 1.748-.516 2.56a6.674 6.674 0 01-1.476 2.17 6.81 6.81 0 01-2.21 1.448 6.911 6.911 0 01-2.606.508 6.91 6.91 0 01-2.608-.507 6.814 6.814 0 01-2.21-1.449 6.674 6.674 0 01-1.477-2.17 6.575 6.575 0 01-.517-2.56V6.685c0-.878.175-1.748.517-2.56a6.673 6.673 0 011.477-2.17 6.814 6.814 0 012.21-1.448A6.912 6.912 0 0140.961 0c.894 0 1.78.172 2.606.507a6.812 6.812 0 012.21 1.45 6.675 6.675 0 011.476 2.17c.341.81.517 1.68.516 2.558v16.77-.003z" fill="#2EB67D"/><path d="M40.96 50.247c.895 0 1.78.172 2.607.508a6.815 6.815 0 012.21 1.449 6.674 6.674 0 011.475 2.17c.342.811.518 1.68.517 2.559a6.574 6.574 0 01-.516 2.56 6.676 6.676 0 01-1.475 2.17 6.815 6.815 0 01-2.21 1.45 6.913 6.913 0 01-2.607.508c-.895 0-1.78-.172-2.608-.508a6.815 6.815 0 01-2.21-1.45 6.676 6.676 0 01-1.475-2.17 6.576 6.576 0 01-.516-2.56v-6.686h6.809zm0-3.342c-.894 0-1.78-.172-2.606-.508a6.815 6.815 0 01-2.21-1.449 6.674 6.674 0 01-1.475-2.17 6.576 6.576 0 01-.517-2.559c0-.878.175-1.748.517-2.56a6.673 6.673 0 011.476-2.169 6.812 6.812 0 012.21-1.449 6.911 6.911 0 012.606-.507h17.076c.894-.001 1.78.171 2.606.507a6.812 6.812 0 012.21 1.45 6.674 6.674 0 011.476 2.169c.342.811.517 1.681.516 2.56.001.877-.174 1.747-.516 2.558a6.676 6.676 0 01-1.476 2.17 6.815 6.815 0 01-2.21 1.45 6.913 6.913 0 01-2.606.507H40.96z" fill="#ECB22E"/></g><defs><clipPath id="nclip0_32_0"><path fill="#fff" d="M0 0h65v63.823H0z"/></clipPath></defs></svg><svg fill="none" viewBox="0 0 194 49" id="slack-logo" xmlns="http://www.w3.org/2000/svg"><g clip-path="url(#oclip0_43_18)" fill="#fff" fill-opacity=".2"><path d="M61.986 38.403l2.42-5.592c2.616 1.942 6.09 2.952 9.525 2.952 2.537 0 4.137-.971 4.137-2.447-.039-4.116-15.184-.893-15.301-11.222-.039-5.242 4.645-9.28 11.28-9.28 3.943 0 7.886.97 10.696 3.184l-2.264 5.708c-2.576-1.631-5.777-2.796-8.822-2.796-2.068 0-3.434.97-3.434 2.213.039 4.039 15.301 1.826 15.457 11.688 0 5.359-4.567 9.126-11.125 9.126-4.801 0-9.212-1.127-12.569-3.534zm92.863-7.611l6.675 3.689a14.565 14.565 0 01-12.765 7.456c-8.08 0-14.638-6.524-14.638-14.562s6.558-14.561 14.638-14.561c5.465 0 10.266 3.028 12.765 7.455l-6.675 3.689c-1.21-2.097-3.474-3.533-6.09-3.533-3.864 0-6.987 3.106-6.987 6.95 0 3.844 3.123 6.95 6.987 6.95 2.616 0 4.88-1.436 6.089-3.533h.001zM89.037.738h8.353v40.655h-8.353V.738zm75.765 0h8.354v23.88l9.446-11.222h10.227L181.158 26.91l12.608 14.484h-10.695L173.156 29.2v12.193h-8.354V.738zM122.216 30.87v-6.873c-1.21-2.02-3.708-3.572-6.518-3.572-3.865 0-6.987 3.106-6.987 6.95 0 3.844 3.122 6.95 6.987 6.95 2.81 0 5.308-1.475 6.518-3.455zm0-17.473h8.354v27.957h-8.354v-3.3c-1.366 2.29-4.762 3.883-8.314 3.883-7.339 0-13.116-6.524-13.116-14.6 0-8.077 5.777-14.523 13.116-14.523 3.552 0 6.948 1.592 8.314 3.883v-3.301zM10.344 30.83c0 2.835-2.303 5.127-5.153 5.127a5.171 5.171 0 01-3.644-1.5A5.12 5.12 0 01.039 30.83c0-2.835 2.303-5.126 5.152-5.126h5.153v5.126zm2.576 0c0-2.834 2.303-5.125 5.153-5.125 2.85 0 5.152 2.291 5.152 5.126v12.814c0 2.834-2.303 5.125-5.152 5.125a5.17 5.17 0 01-3.645-1.5 5.119 5.119 0 01-1.507-3.625V30.83zM18.073 10.251a5.171 5.171 0 01-3.645-1.5 5.12 5.12 0 01-1.507-3.626C12.92 2.291 15.223 0 18.073 0s5.152 2.29 5.152 5.125v5.126h-5.152zm0 2.602c2.85 0 5.152 2.29 5.152 5.125s-2.303 5.126-5.152 5.126H5.153a5.171 5.171 0 01-3.645-1.5A5.118 5.118 0 010 17.978c0-2.834 2.303-5.125 5.152-5.125h12.921zM38.722 17.978c0-2.834 2.303-5.125 5.152-5.125 2.85 0 5.153 2.29 5.153 5.125s-2.303 5.126-5.153 5.126h-5.152v-5.126zm-2.577 0c0 2.835-2.302 5.126-5.152 5.126a5.171 5.171 0 01-3.645-1.5 5.12 5.12 0 01-1.507-3.626V5.125C25.84 2.291 28.144 0 30.993 0c2.85 0 5.153 2.29 5.153 5.125V17.98zM30.993 38.52c2.85 0 5.153 2.29 5.153 5.125 0 2.834-2.303 5.125-5.153 5.125a5.17 5.17 0 01-3.645-1.5 5.12 5.12 0 01-1.507-3.625v-5.126h5.152zm0-2.564a5.173 5.173 0 01-3.645-1.5 5.118 5.118 0 01-1.507-3.625c0-2.835 2.303-5.126 5.152-5.126h12.92c2.85 0 5.153 2.291 5.153 5.126 0 2.834-2.303 5.126-5.153 5.126h-12.92z"/></g><defs><clipPath id="oclip0_43_18"><path fill="#fff" d="M0 0h194v49H0z"/></clipPath></defs></svg><svg fill="none" viewBox="0 0 64 64" id="toolbox-icon" xmlns="http://www.w3.org/2000/svg"><g opacity=".78" clip-path="url(#pclip0_50_210)"><path d="M32 64.152L60 48.13V16.114l-28 16.02v32.018z" fill="#000001"/><path d="M38 49.111V54l12-7.111V42l-12 7.111z" fill="#fff"/><path d="M32 .152L4 16.114V48.13l28 16.022V32.134l28-16.02L32 .152z" fill="url(#ppaint0_linear_50_210)"/></g><defs><linearGradient id="ppaint0_linear_50_210" x1="4.36" y1="46.51" x2="60.082" y2="17.564" gradientUnits="userSpaceOnUse"><stop offset=".043" stop-color="#FF8618"/><stop offset=".382" stop-color="#FF246E"/><stop offset=".989" stop-color="#AF1DF5"/></linearGradient><clipPath id="pclip0_50_210"><path fill="#fff" d="M0 0h64v64H0z"/></clipPath></defs></svg><svg fill="none" viewBox="0 0 36 36" id="twitter" xmlns="http://www.w3.org/2000/svg"><path d="M29.45 11.996c.019.262.019.523.019.784 0 7.988-6.08 17.192-17.19 17.192-3.423 0-6.603-.992-9.279-2.714.486.056.954.075 1.46.075 2.719.007 5.361-.903 7.501-2.581a6.054 6.054 0 01-5.65-4.19c.373.056.748.093 1.141.093.542 0 1.086-.075 1.591-.205A6.04 6.04 0 014.2 14.52v-.075c.805.449 1.74.73 2.73.767a6.034 6.034 0 01-2.695-5.031c0-1.122.299-2.151.822-3.048a17.186 17.186 0 0012.46 6.322 6.866 6.866 0 01-.15-1.384 6.039 6.039 0 016.041-6.042c1.74 0 3.311.729 4.415 1.908a11.935 11.935 0 003.834-1.46A6.03 6.03 0 0129 9.807a12.11 12.11 0 003.478-.936 12.968 12.968 0 01-3.029 3.125z" fill="#fff" fill-opacity=".78"/></svg><svg fill="none" viewBox="0 0 65 63" id="visual-studio-code" xmlns="http://www.w3.org/2000/svg"><g opacity=".78"><mask id="ra" style="mask-type:alpha" maskUnits="userSpaceOnUse" x="0" y="0" width="65" height="63"><path d="M45.913 62.497a4.125 4.125 0 003.212-.12l13.33-6.25a4.014 4.014 0 001.672-1.456 3.87 3.87 0 00.62-2.098v-42.38c0-.742-.215-1.47-.62-2.098a4.014 4.014 0 00-1.671-1.455L49.126.39A4.126 4.126 0 0046.7.056a4.068 4.068 0 00-2.175 1.095l-25.52 22.686-11.115-8.222a2.744 2.744 0 00-1.75-.531 2.733 2.733 0 00-1.693.68l-3.565 3.16a2.585 2.585 0 00-.003 3.888l9.64 8.57-9.64 8.57a2.585 2.585 0 00.003 3.887L4.448 47a2.732 2.732 0 001.694.681 2.743 2.743 0 001.749-.531l11.116-8.222 25.52 22.686c.394.385.866.685 1.386.883zm2.657-45.436L29.207 31.383 48.57 45.705V17.06z" fill="#fff"/></mask><g mask="url(#ra)"><path d="M62.495 6.65L49.155.39a4.128 4.128 0 00-2.426-.333 4.07 4.07 0 00-2.176 1.095L.88 39.952a2.584 2.584 0 00.003 3.888L4.451 47a2.735 2.735 0 001.694.681c.63.028 1.249-.16 1.75-.531L60.489 8.273c1.764-1.304 4.299-.078 4.299 2.08v-.151c0-.742-.216-1.47-.62-2.098a4.013 4.013 0 00-1.672-1.455z" fill="#0065A9"/><path d="M62.495 56.116l-13.34 6.259a4.13 4.13 0 01-2.426.333 4.07 4.07 0 01-2.176-1.095L.88 22.813a2.584 2.584 0 01.003-3.888l3.568-3.16a2.735 2.735 0 011.695-.681c.629-.027 1.248.16 1.75.532l52.592 38.876c1.764 1.304 4.299.078 4.299-2.08v.151a3.87 3.87 0 01-.62 2.098 4.013 4.013 0 01-1.672 1.455z" fill="#007ACC"/><path d="M49.113 62.38a4.13 4.13 0 01-2.426.333 4.072 4.072 0 01-2.176-1.096c1.493 1.455 4.046.424 4.046-1.634V2.79c0-2.058-2.553-3.088-4.046-1.633A4.072 4.072 0 0146.687.06a4.13 4.13 0 012.426.333l13.338 6.25a4.013 4.013 0 011.672 1.455 3.87 3.87 0 01.62 2.098v42.38c0 1.516-.89 2.897-2.292 3.554l-13.338 6.25z" fill="#1F9CF0"/><path d="M45.913 62.496a4.127 4.127 0 003.212-.12l13.33-6.25a4.013 4.013 0 001.672-1.455c.405-.629.62-1.356.62-2.099v-42.38c0-.742-.215-1.47-.62-2.098a4.014 4.014 0 00-1.671-1.455L49.126.389A4.126 4.126 0 0046.7.056a4.068 4.068 0 00-2.175 1.096l-25.52 22.686-11.115-8.222a2.744 2.744 0 00-1.75-.532 2.732 2.732 0 00-1.693.681l-3.565 3.16a2.585 2.585 0 00-.003 3.888l9.64 8.57-9.64 8.569a2.585 2.585 0 00.003 3.888L4.448 47a2.732 2.732 0 001.694.68 2.744 2.744 0 001.749-.531l11.116-8.222 25.519 22.686c.394.385.867.686 1.387.883zM48.57 17.06L29.207 31.383 48.57 45.703V17.06z" fill="url(#rpaint0_linear_26_121)" fill-opacity=".25"/></g></g><defs><linearGradient id="rpaint0_linear_26_121" x1="32.374" y1="0" x2="32.374" y2="62.765" gradientUnits="userSpaceOnUse"><stop stop-color="#fff"/><stop offset="1" stop-color="#fff" stop-opacity="0"/></linearGradient></defs></svg><svg fill="none" viewBox="0 0 194 44" id="wordpress-logo" xmlns="http://www.w3.org/2000/svg"><path d="M112.516 17.196h-7.637V18c2.389 0 2.773.508 2.773 3.515v5.42c0 3.007-.384 3.557-2.773 3.557-1.834-.254-3.071-1.228-4.778-3.091l-1.962-2.117c2.644-.466 4.052-2.117 4.052-3.98 0-2.33-2.004-4.107-5.759-4.107h-7.508V18c2.388 0 2.772.508 2.772 3.515v5.42c0 3.007-.384 3.557-2.772 3.557v.804h8.489v-.804c-2.389 0-2.772-.55-2.772-3.557v-1.524h.724l4.736 5.885h12.415c6.101 0 8.746-3.217 8.746-7.071 0-3.853-2.645-7.029-8.746-7.029zm-17.875 6.902v-5.631h1.749c1.92 0 2.773 1.312 2.773 2.837 0 1.482-.854 2.794-2.773 2.794h-1.75zm18.003 5.886h-.299c-1.535 0-1.748-.381-1.748-2.329v-9.189h2.047c4.437 0 5.247 3.218 5.247 5.717 0 2.583-.81 5.801-5.247 5.801zm-47.482-4.319l2.943-8.639c.854-2.498.47-3.217-2.26-3.217v-.847h8.02v.847c-2.688 0-3.327.635-4.394 3.726l-4.864 14.481h-.554L59.7 18.762l-4.438 13.254h-.554l-4.735-14.481c-1.024-3.091-1.707-3.726-4.181-3.726v-.847h9.47v.847c-2.516 0-3.2.593-2.303 3.217l2.858 8.639 4.31-12.703h.81l4.224 12.703zm14.504 6.182c-4.693 0-8.532-3.43-8.532-7.623 0-4.149 3.84-7.58 8.532-7.58 4.693 0 8.532 3.431 8.532 7.58 0 4.193-3.839 7.623-8.532 7.623zm0-13.889c-3.924 0-5.29 3.514-5.29 6.267 0 2.795 1.365 6.267 5.29 6.267 3.968 0 5.333-3.472 5.333-6.267 0-2.753-1.365-6.267-5.333-6.267zM131.799 30.45v.846h-9.77v-.846c2.859 0 3.371-.72 3.371-4.955V18.72c0-4.236-.512-4.912-3.371-4.912v-.848h8.831c4.394 0 6.826 2.245 6.826 5.251 0 2.922-2.432 5.208-6.826 5.208h-2.432v2.074c0 4.236.512 4.956 3.371 4.956zm-.939-15.965h-2.432v7.369h2.432c2.389 0 3.499-1.652 3.499-3.642 0-2.032-1.11-3.727-3.499-3.727zm36.135 12.831l-.213.762c-.384 1.398-.854 1.906-3.883 1.906h-.598c-2.217 0-2.602-.509-2.602-3.514v-1.948c3.328 0 3.584.296 3.584 2.498h.811v-6.31h-.811c0 2.202-.256 2.498-3.584 2.498v-4.742h2.346c3.03 0 3.499.508 3.883 1.906l.214.804h.682l-.298-3.98h-12.544V18c2.389 0 2.774.508 2.774 3.515v5.42c0 2.75-.327 3.443-2.21 3.542-1.79-.272-3.019-1.241-4.701-3.077l-1.963-2.116c2.646-.467 4.054-2.118 4.054-3.981 0-2.329-2.006-4.107-5.76-4.107h-7.508V18c2.388 0 2.773.508 2.773 3.515v5.42c0 3.006-.384 3.557-2.773 3.557v.804h8.49v-.805c-2.389 0-2.773-.55-2.773-3.556V25.41h.725l4.735 5.885h17.534l.257-3.98h-.641zm-22.611-3.218v-5.631h1.749c1.92 0 2.774 1.312 2.774 2.837 0 1.482-.854 2.794-2.774 2.794h-1.749zm31.271 7.749c-1.706 0-3.2-.89-3.84-1.44-.213.212-.597.847-.682 1.44h-.811v-5.843h.854c.341 2.794 2.303 4.445 4.821 4.445 1.365 0 2.474-.761 2.474-2.032 0-1.1-.981-1.948-2.73-2.752l-2.432-1.143c-1.707-.805-2.987-2.203-2.987-4.065 0-2.033 1.92-3.769 4.565-3.769 1.409 0 2.602.509 3.328 1.101.213-.17.427-.635.555-1.144h.811v4.998h-.896c-.3-1.99-1.408-3.642-3.669-3.642-1.195 0-2.305.678-2.305 1.737 0 1.1.897 1.693 2.945 2.625l2.345 1.143c2.049.973 2.859 2.54 2.859 3.81 0 2.668-2.347 4.531-5.205 4.531zm13.14 0c-1.707 0-3.2-.89-3.84-1.44-.213.212-.597.847-.682 1.44h-.81v-5.843h.852c.341 2.794 2.304 4.445 4.821 4.445 1.365 0 2.475-.761 2.475-2.032 0-1.1-.981-1.948-2.731-2.752l-2.432-1.143c-1.706-.805-2.986-2.203-2.986-4.065 0-2.033 1.92-3.769 4.565-3.769 1.408 0 2.602.509 3.328 1.101.213-.17.426-.635.554-1.144h.811v4.998h-.896c-.299-1.99-1.408-3.642-3.669-3.642-1.194 0-2.304.678-2.304 1.737 0 1.1.896 1.693 2.944 2.625l2.346 1.143c2.048.973 2.858 2.54 2.858 3.81 0 2.668-2.346 4.531-5.204 4.531zM3.128 21.843c0 7.418 4.344 13.827 10.642 16.865L4.763 14.217a18.55 18.55 0 00-1.635 7.627zm31.627-.945c0-2.316-.838-3.92-1.558-5.169-.957-1.543-1.854-2.85-1.854-4.393 0-1.723 1.317-3.327 3.17-3.327.084 0 .164.01.246.015a18.889 18.889 0 00-12.75-4.919 18.894 18.894 0 00-15.775 8.447c.443.013.86.022 1.215.022 1.975 0 5.032-.238 5.032-.238 1.018-.06 1.137 1.424.121 1.544 0 0-1.023.12-2.161.178l6.875 20.298 4.132-12.3-2.942-7.998c-1.016-.06-1.98-.18-1.98-.18-1.017-.058-.897-1.602.12-1.543 0 0 3.118.238 4.973.238 1.974 0 5.032-.238 5.032-.238 1.018-.06 1.138 1.424.121 1.544 0 0-1.025.12-2.16.178l6.822 20.145 1.883-6.247c.816-2.591 1.438-4.453 1.438-6.057zM22.34 23.483L16.675 39.82a19.009 19.009 0 0011.604-.299 1.648 1.648 0 01-.135-.258l-5.804-15.78zm16.236-10.63c.08.597.127 1.237.127 1.927 0 1.901-.358 4.039-1.436 6.712L31.5 38.042c5.613-3.25 9.389-9.285 9.389-16.198 0-3.258-.839-6.322-2.313-8.991zM22.009 0C9.874 0 0 9.799 0 21.843 0 33.89 9.874 43.688 22.009 43.688s22.01-9.799 22.01-21.845C44.019 9.8 34.144 0 22.009 0zm0 42.686c-11.579 0-21-9.35-21-20.843 0-11.492 9.42-20.842 21-20.842 11.578 0 20.999 9.35 20.999 20.842 0 11.493-9.42 20.843-21 20.843z" fill="#fff" fill-opacity=".2"/></svg><svg fill="none" viewBox="0 0 64 64" id="zeplin-icon" xmlns="http://www.w3.org/2000/svg"><g opacity=".78" fill-rule="evenodd" clip-rule="evenodd"><path d="M12.632 40.337l-2.93 1.052-.157 8.566 10.14-3.641c-3.477-1.149-6.018-3.17-7.053-5.977z" fill="#FDBD39"/><path d="M14.165 31.276L4 34.926l5.702 6.462 2.93-1.051c-1.033-2.8-.396-5.965 1.533-9.061z" fill="#F69833"/><path d="M31.27 18.915C18.326 23.563 9.98 33.154 12.63 40.337l46.874-16.832c-2.65-7.183-15.291-9.238-28.235-4.59z" fill="#FECF33"/><path d="M40.866 44.927C53.81 40.279 62.17 30.731 59.505 23.505L12.632 40.337c2.665 7.225 15.29 9.238 28.234 4.59z" fill="#EE6723"/><path d="M59.505 23.505L12.632 40.337c.917 2.487 4.417 3.713 9.328 3.713 4.788 0 10.917-1.164 17.307-3.458 12.944-4.648 22.05-12.173 20.238-17.087z" fill="#F69833"/><path d="M50.176 19.792c-4.788 0-10.917 1.164-17.307 3.458-12.944 4.648-22.05 12.173-20.237 17.087l46.873-16.832c-.918-2.488-4.418-3.713-9.33-3.713z" fill="#FDBD39"/><path d="M47.587 50.409c-1.38 0-3.414-1.225-6.048-3.64-3.115-2.857-6.684-7.041-10.05-11.782-3.364-4.742-6.13-9.482-7.785-13.347-1.804-4.213-2.061-6.803-.765-7.7a1.757 1.757 0 011.019-.295c1.055 0 3.11.772 6.91 4.45l.083.08-.011.114c-.026.264-.05.53-.071.793l-.043.52-.372-.37c-4.095-4.055-5.898-4.493-6.483-4.493a.69.69 0 00-.395.1c-.562.388-.598 2.29 1.15 6.374 1.627 3.797 4.352 8.465 7.673 13.145 3.322 4.68 6.836 8.803 9.896 11.609 3.3 3.026 4.787 3.352 5.273 3.352a.703.703 0 00.406-.105c.593-.41.594-2.448-1.357-6.844l-.09-.201.197-.106c.196-.105.385-.21.563-.309l.235-.13.108.243c1.383 3.115 2.676 7.073.98 8.244-.285.198-.63.298-1.023.298zm0-.48v.24-.24z" fill="#EE6723"/><path d="M41.18 44.796l-.02.24c-.326 3.98-1.188 8.764-3.435 8.958a1.586 1.586 0 01-.139.006c-1.526 0-2.97-2.15-4.29-6.388-1.251-4.01-2.221-9.395-2.733-15.162-.511-5.766-.503-11.235.022-15.4.572-4.538 1.663-6.908 3.24-7.044.046-.004.095-.006.142-.006 1.108 0 2.776 1.232 4.484 6.972l-1.115.211c-.57-1.918-1.192-3.478-1.809-4.55-.57-.991-1.126-1.537-1.563-1.537-.014 0-.029 0-.043.002-.683.059-1.679 1.689-2.234 6.088-.516 4.09-.522 9.477-.018 15.169.505 5.692 1.46 10.996 2.687 14.935.55 1.764 1.154 3.217 1.745 4.204.545.91 1.072 1.41 1.485 1.41l.043-.001c.654-.057 1.886-1.753 2.405-7.72l1.147-.387z" fill="#EE6723"/></g></svg></svg>