<svg aria-hidden="true" style="position: absolute; width: 0; height: 0; overflow: hidden;" version="1.1" xmlns="http://www.w3.org/2000/svg" xmlns:xlink="http://www.w3.org/1999/xlink">
<defs>
<symbol id="icon-facebook" viewBox="0 0 32 32">
<path d="M17.863 27.996v-10.928h3.687l0.548-4.279h-4.235v-2.725c0-1.235 0.344-2.080 2.116-2.080h2.245v-3.815c-1.093-0.117-2.191-0.174-3.289-0.169-3.259 0-5.496 1.989-5.496 5.641v3.14h-3.663v4.279h3.671v10.936h4.416z"></path>
</symbol>
<symbol id="icon-file" viewBox="0 0 32 32">
<path d="M18.667 17.333h-1.333v-1.333c0-0.354-0.14-0.693-0.39-0.943s-0.589-0.39-0.943-0.39c-0.354 0-0.693 0.14-0.943 0.39s-0.39 0.589-0.39 0.943v1.333h-1.333c-0.354 0-0.693 0.14-0.943 0.39s-0.39 0.589-0.39 0.943c0 0.354 0.14 0.693 0.39 0.943s0.589 0.39 0.943 0.39h1.333v1.333c0 0.354 0.14 0.693 0.39 0.943s0.589 0.39 0.943 0.39c0.354 0 0.693-0.14 0.943-0.39s0.39-0.589 0.39-0.943v-1.333h1.333c0.354 0 0.693-0.14 0.943-0.39s0.39-0.589 0.39-0.943c0-0.354-0.14-0.693-0.39-0.943s-0.589-0.39-0.943-0.39z"></path>
<path d="M26 9.4h-9.333l-3.507-4.24c-0.124-0.153-0.281-0.277-0.458-0.362s-0.372-0.13-0.569-0.132h-6.133c-0.871-0.011-1.711 0.324-2.336 0.932s-0.983 1.437-0.997 2.308v16.187c0.014 0.871 0.373 1.701 0.997 2.308s1.465 0.942 2.336 0.932h20c0.871 0.011 1.711-0.324 2.336-0.932s0.983-1.437 0.997-2.308v-11.453c-0.014-0.871-0.373-1.701-0.997-2.309s-1.465-0.942-2.336-0.932v0zM26.667 24.067c-0.005 0.082-0.026 0.162-0.063 0.235s-0.087 0.139-0.149 0.192c-0.062 0.053-0.134 0.094-0.212 0.119s-0.16 0.034-0.242 0.027h-20c-0.082 0.007-0.164-0.002-0.242-0.027s-0.15-0.066-0.212-0.119c-0.062-0.053-0.113-0.119-0.149-0.192s-0.058-0.153-0.063-0.235v-16.16c0.005-0.082 0.026-0.162 0.063-0.235s0.087-0.139 0.149-0.192c0.062-0.053 0.134-0.094 0.212-0.119s0.16-0.034 0.242-0.027h5.507l3.467 4.24c0.124 0.153 0.281 0.276 0.458 0.362s0.372 0.13 0.569 0.132h10c0.082-0.007 0.164 0.002 0.242 0.027s0.15 0.066 0.212 0.119 0.113 0.119 0.149 0.192c0.036 0.073 0.058 0.153 0.063 0.235v11.427z"></path>
</symbol>
<symbol id="icon-instagram" viewBox="0 0 32 32">
<path d="M15.999 9.836c-1.635 0-3.203 0.65-4.36 1.806s-1.806 2.724-1.806 4.36c0 1.635 0.65 3.203 1.806 4.36s2.724 1.806 4.36 1.806 3.203-0.649 4.36-1.806c1.156-1.156 1.806-2.724 1.806-4.36s-0.65-3.203-1.806-4.36c-1.156-1.156-2.724-1.806-4.36-1.806zM15.999 20.005c-1.062 0-2.081-0.422-2.832-1.173s-1.173-1.77-1.173-2.832c0-1.062 0.422-2.081 1.173-2.832s1.77-1.173 2.832-1.173 2.081 0.422 2.832 1.173c0.751 0.751 1.173 1.77 1.173 2.832s-0.422 2.081-1.173 2.832c-0.751 0.751-1.77 1.173-2.832 1.173z"></path>
<path d="M22.408 11.047c0.794 0 1.437-0.644 1.437-1.437s-0.644-1.437-1.437-1.437-1.437 0.644-1.437 1.437c0 0.794 0.644 1.437 1.437 1.437z"></path>
<path d="M27.377 8.148c-0.309-0.797-0.78-1.521-1.385-2.125s-1.329-1.076-2.126-1.384c-0.933-0.35-1.918-0.54-2.915-0.56-1.284-0.056-1.691-0.072-4.947-0.072s-3.673 0-4.947 0.072c-0.995 0.019-1.98 0.209-2.912 0.56-0.797 0.308-1.522 0.779-2.126 1.384s-1.076 1.328-1.384 2.126c-0.35 0.933-0.539 1.918-0.559 2.915-0.057 1.283-0.075 1.689-0.075 4.947 0 3.256 0 3.671 0.075 4.947 0.020 0.997 0.208 1.981 0.559 2.916 0.309 0.797 0.781 1.521 1.386 2.125s1.329 1.076 2.126 1.384c0.93 0.364 1.915 0.567 2.913 0.6 1.284 0.056 1.691 0.073 4.947 0.073s3.673 0 4.947-0.073c0.996-0.020 1.982-0.209 2.915-0.559 0.797-0.309 1.521-0.781 2.125-1.385s1.076-1.328 1.385-2.125c0.351-0.933 0.539-1.917 0.559-2.915 0.057-1.283 0.075-1.689 0.075-4.947s0-3.671-0.075-4.947c-0.016-1.010-0.205-2.010-0.561-2.956zM25.753 20.857c-0.009 0.768-0.149 1.53-0.415 2.251-0.2 0.519-0.507 0.989-0.9 1.382s-0.864 0.699-1.383 0.899c-0.713 0.265-1.466 0.405-2.227 0.415-1.267 0.059-1.624 0.073-4.872 0.073-3.251 0-3.583 0-4.873-0.073-0.76-0.009-1.513-0.149-2.225-0.415-0.52-0.199-0.993-0.504-1.388-0.897s-0.703-0.864-0.904-1.384c-0.262-0.713-0.402-1.465-0.415-2.225-0.057-1.267-0.071-1.624-0.071-4.872 0-3.249 0-3.581 0.071-4.873 0.009-0.768 0.149-1.529 0.415-2.249 0.407-1.052 1.24-1.88 2.292-2.283 0.713-0.264 1.465-0.404 2.225-0.415 1.268-0.057 1.624-0.073 4.873-0.073s3.583 0 4.872 0.073c0.761 0.009 1.514 0.149 2.227 0.415 0.519 0.2 0.989 0.507 1.383 0.9s0.7 0.864 0.9 1.383c0.262 0.713 0.402 1.466 0.415 2.225 0.057 1.268 0.072 1.624 0.072 4.873 0 3.248 0 3.597-0.057 4.872h-0.015v-0.001z"></path>
</symbol>
<symbol id="icon-like" viewBox="0 0 32 32">
<path d="M22.667 6c-2.8 0-5.267 1.4-6.667 3.6-1.4-2.2-3.867-3.6-6.667-3.6-4.4 0-8 3.6-8 8 0 7.933 14.667 16 14.667 16s14.667-8 14.667-16c0-4.4-3.6-8-8-8z"></path>
</symbol>
<symbol id="icon-logos_google" viewBox="0 0 99 32">
<path d="M95.442 19.557l2.733 1.804c-0.887 1.293-3.009 3.512-6.677 3.512-4.554 0-7.946-3.489-7.946-7.926 0-4.723 3.428-7.926 7.563-7.926 4.159 0 6.197 3.275 6.856 5.043l0.36 0.902-10.715 4.39c0.814 1.59 2.086 2.397 3.883 2.397 1.798 0 3.044-0.878 3.944-2.195zM87.040 16.697l7.155-2.943c-0.396-0.985-1.57-1.685-2.973-1.685-1.786 0-4.267 1.566-4.183 4.628z"></path>
<path d="M78.386 0.939h3.452v23.209h-3.452v-23.209z"></path>
<path d="M72.944 9.637h3.332v14.097c0 5.85-3.487 8.259-7.611 8.259-3.883 0-6.22-2.587-7.095-4.687l3.056-1.258c0.551 1.293 1.882 2.824 4.039 2.824 2.649 0 4.279-1.626 4.279-4.663v-1.139h-0.12c-0.791 0.949-2.302 1.803-4.219 1.803-4.003 0-7.671-3.453-7.671-7.902 0-4.474 3.668-7.962 7.671-7.962 1.906 0 3.428 0.842 4.219 1.768h0.12v-1.139zM73.184 16.97c0-2.8-1.882-4.841-4.279-4.841-2.421 0-4.459 2.041-4.459 4.841 0 2.765 2.038 4.77 4.459 4.77 2.397 0.012 4.279-2.005 4.279-4.77v0z"></path>
<path d="M41.985 16.911c0 4.568-3.596 7.926-8.006 7.926s-8.006-3.37-8.006-7.926c0-4.592 3.596-7.938 8.006-7.938s8.006 3.346 8.006 7.938zM38.485 16.911c0-2.848-2.086-4.806-4.507-4.806s-4.507 1.958-4.507 4.806c0 2.824 2.086 4.806 4.507 4.806s4.507-1.982 4.507-4.806z"></path>
<path d="M59.472 16.946c0 4.568-3.596 7.926-8.006 7.926s-8.006-3.358-8.006-7.926c0-4.592 3.596-7.926 8.006-7.926s8.006 3.322 8.006 7.926zM55.96 16.946c0-2.848-2.085-4.806-4.507-4.806s-4.507 1.958-4.507 4.806c0 2.824 2.086 4.806 4.507 4.806 2.433 0 4.507-1.994 4.507-4.806z"></path>
<path d="M12.812 21.396c-5.022 0-8.953-4.011-8.953-8.982s3.931-8.982 8.953-8.982c2.709 0 4.686 1.056 6.149 2.409l2.409-2.385c-2.038-1.934-4.758-3.406-8.558-3.406-6.88 0-12.669 5.554-12.669 12.364s5.789 12.364 12.669 12.364c3.716 0 6.52-1.21 8.714-3.465 2.253-2.231 2.948-5.363 2.948-7.903 0-0.795-0.096-1.614-0.204-2.219h-11.458v3.299h8.162c-0.24 2.065-0.899 3.477-1.87 4.438-1.175 1.175-3.032 2.468-6.292 2.468z"></path>
</symbol>
<symbol id="icon-logos_microsoft" viewBox="0 0 147 32">
<path d="M147.012 14.381v-2.619h-3.211v-4.071l-0.108 0.034-3.075 0.953v3.085h-4.76v-1.718c0-0.8 0.177-1.413 0.525-1.821 0.345-0.404 0.84-0.609 1.47-0.609 0.453 0 0.923 0.108 1.395 0.322l0.119 0.053v-2.758l-0.056-0.021c-0.441-0.161-1.041-0.241-1.784-0.241-0.936 0-1.787 0.207-2.53 0.616s-1.326 0.994-1.736 1.738c-0.408 0.743-0.614 1.601-0.614 2.55v1.889h-2.236v2.619h2.236v11.032h3.209v-11.032h4.76v7.011c0 2.888 1.345 4.351 3.996 4.351 0.436 0 0.894-0.052 1.363-0.153 0.477-0.104 0.801-0.208 0.992-0.319l0.043-0.025v-2.643l-0.131 0.087c-0.174 0.118-0.391 0.214-0.645 0.285-0.255 0.073-0.469 0.109-0.634 0.109-0.621 0-1.080-0.17-1.366-0.504-0.289-0.337-0.434-0.928-0.434-1.754v-6.445h3.211zM123.246 23.085c-1.164 0-2.083-0.392-2.73-1.162-0.651-0.775-0.981-1.879-0.981-3.282 0-1.447 0.33-2.58 0.981-3.369 0.648-0.783 1.557-1.181 2.704-1.181 1.113 0 1.999 0.38 2.633 1.129 0.638 0.753 0.962 1.877 0.962 3.342 0 1.482-0.305 2.621-0.904 3.383-0.597 0.756-1.493 1.14-2.664 1.14zM123.389 11.434c-2.222 0-3.988 0.659-5.246 1.96s-1.896 3.101-1.896 5.352c0 2.137 0.622 3.857 1.851 5.109s2.898 1.888 4.965 1.888c2.155 0 3.885-0.669 5.143-1.988s1.895-3.101 1.895-5.299c0-2.171-0.598-3.903-1.778-5.147-1.181-1.245-2.841-1.876-4.935-1.876zM111.073 11.434c-1.512 0-2.762 0.392-3.717 1.164-0.961 0.777-1.448 1.796-1.448 3.029 0 0.641 0.105 1.21 0.312 1.693 0.208 0.484 0.531 0.911 0.959 1.269 0.425 0.355 1.081 0.727 1.95 1.106 0.731 0.305 1.276 0.562 1.622 0.765 0.339 0.199 0.579 0.399 0.715 0.594 0.132 0.191 0.199 0.451 0.199 0.774 0 0.917-0.678 1.363-2.073 1.363-0.517 0-1.108-0.109-1.755-0.325-0.642-0.213-1.248-0.524-1.797-0.923l-0.133-0.097v3.13l0.049 0.023c0.454 0.212 1.027 0.391 1.701 0.532s1.285 0.213 1.817 0.213c1.64 0 2.962-0.394 3.925-1.171 0.97-0.782 1.462-1.825 1.462-3.101 0-0.92-0.265-1.709-0.786-2.346-0.518-0.631-1.417-1.211-2.672-1.723-0.999-0.406-1.639-0.743-1.903-1.002-0.254-0.25-0.384-0.604-0.384-1.051 0-0.397 0.16-0.715 0.488-0.973 0.33-0.259 0.789-0.391 1.365-0.391 0.535 0 1.082 0.085 1.626 0.253s1.022 0.392 1.42 0.667l0.131 0.091v-2.969l-0.050-0.022c-0.368-0.16-0.853-0.296-1.442-0.407-0.586-0.11-1.118-0.165-1.581-0.165zM97.541 23.085c-1.165 0-2.083-0.391-2.731-1.162-0.651-0.775-0.981-1.879-0.981-3.282 0-1.447 0.33-2.58 0.981-3.369 0.647-0.783 1.557-1.181 2.704-1.181 1.112 0 1.998 0.38 2.633 1.129 0.637 0.753 0.961 1.877 0.961 3.342 0 1.482-0.304 2.621-0.904 3.383-0.596 0.756-1.492 1.14-2.664 1.14v-0zM97.684 11.434c-2.223 0-3.989 0.659-5.246 1.96s-1.896 3.101-1.896 5.352c0 2.138 0.623 3.857 1.851 5.109s2.899 1.888 4.966 1.888c2.154 0 3.884-0.669 5.142-1.988s1.896-3.101 1.896-5.299c0-2.171-0.598-3.903-1.778-5.147s-2.841-1.876-4.934-1.876v0zM85.67 14.127v-2.364h-3.17v13.651h3.17v-6.983c0-1.188 0.266-2.163 0.79-2.9 0.518-0.728 1.208-1.097 2.050-1.097 0.286 0 0.606 0.047 0.953 0.142 0.344 0.094 0.593 0.195 0.74 0.303l0.133 0.098v-3.237l-0.051-0.022c-0.296-0.127-0.713-0.191-1.242-0.191-0.796 0-1.509 0.259-2.12 0.77-0.536 0.449-0.923 1.064-1.22 1.831h-0.034zM76.823 11.434c-1.455 0-2.752 0.316-3.856 0.938-1.106 0.624-1.961 1.515-2.542 2.648-0.579 1.131-0.873 2.451-0.873 3.923 0 1.29 0.285 2.473 0.848 3.517 0.564 1.045 1.362 1.862 2.372 2.429 1.009 0.566 2.175 0.854 3.466 0.854 1.506 0 2.793-0.305 3.824-0.907l0.042-0.024v-2.942l-0.133 0.099c-0.475 0.348-0.997 0.624-1.551 0.818-0.56 0.198-1.071 0.298-1.519 0.298-1.243 0-2.242-0.395-2.967-1.172-0.727-0.778-1.095-1.871-1.095-3.247 0-1.384 0.384-2.505 1.141-3.332 0.754-0.824 1.755-1.243 2.973-1.243 1.042 0 2.057 0.357 3.018 1.063l0.133 0.098v-3.1l-0.043-0.025c-0.361-0.205-0.854-0.374-1.467-0.502-0.609-0.128-1.205-0.193-1.772-0.193h0.001zM67.368 11.763h-3.17v13.651h3.17v-13.651l-0-0zM65.815 5.947c-0.522 0-0.976 0.18-1.351 0.536-0.375 0.358-0.566 0.808-0.566 1.339 0 0.523 0.188 0.965 0.56 1.313 0.369 0.347 0.826 0.523 1.356 0.523s0.989-0.176 1.363-0.523c0.376-0.348 0.567-0.79 0.567-1.313 0-0.513-0.186-0.959-0.552-1.325s-0.829-0.551-1.378-0.551zM57.906 10.755v14.658h3.235v-19.048h-4.477l-5.692 14.148-5.523-14.148h-4.66v19.048h3.040v-14.66h0.105l5.833 14.659h2.294l5.741-14.658h0.105z"></path>
<path d="M14.914 15.106h-14.914v-15.106h14.914v15.106z"></path>
<path d="M31.38 15.106h-14.913v-15.106h14.913v15.106z"></path>
<path d="M14.913 31.791h-14.913v-15.106h14.913v15.106z"></path>
<path d="M31.38 31.791h-14.913v-15.106h14.913v15.106z"></path>
</symbol>
<symbol id="icon-logos_slack" viewBox="0 0 127 32">
<path d="M40.481 25.079l1.58-3.652c1.708 1.268 3.977 1.927 6.22 1.927 1.657 0 2.702-0.634 2.702-1.598-0.026-2.688-9.916-0.583-9.993-7.329-0.025-3.423 3.034-6.061 7.367-6.061 2.575 0 5.149 0.634 6.985 2.079l-1.479 3.728c-1.682-1.065-3.773-1.826-5.761-1.826-1.351 0-2.243 0.634-2.243 1.445 0.026 2.637 9.993 1.192 10.095 7.633 0 3.5-2.982 5.959-7.265 5.959-3.136 0-6.016-0.736-8.208-2.308zM101.126 20.109l4.359 2.409c-1.632 2.916-4.742 4.869-8.336 4.869-5.277 0-9.559-4.26-9.559-9.509s4.283-9.509 9.559-9.509c3.569 0 6.704 1.978 8.336 4.869l-4.359 2.409c-0.79-1.369-2.269-2.307-3.977-2.307-2.523 0-4.563 2.029-4.563 4.539s2.040 4.539 4.563 4.539c1.708 0 3.187-0.938 3.977-2.308h0.001zM58.147 0.482h5.455v26.55h-5.455v-26.55zM107.626 0.482h5.456v15.595l6.169-7.329h6.679l-7.622 8.825 8.234 9.459h-6.984l-6.475-7.962v7.962h-5.456v-26.55zM79.815 20.16v-4.489c-0.79-1.319-2.422-2.333-4.257-2.333-2.524 0-4.563 2.029-4.563 4.539s2.039 4.539 4.563 4.539c1.835 0 3.466-0.964 4.257-2.257v0zM79.815 8.749h5.456v18.258h-5.456v-2.155c-0.892 1.496-3.11 2.536-5.43 2.536-4.793 0-8.566-4.26-8.566-9.535s3.773-9.484 8.566-9.484c2.32 0 4.537 1.040 5.43 2.536v-2.156z"></path>
<path d="M6.755 20.134c0 1.851-1.504 3.347-3.365 3.347-0.442 0-0.88-0.086-1.288-0.254s-0.78-0.415-1.092-0.726c-0.313-0.311-0.56-0.68-0.729-1.086s-0.256-0.842-0.255-1.282c0-1.851 1.504-3.347 3.365-3.347h3.365v3.347zM8.438 20.134c0-1.851 1.504-3.347 3.365-3.347s3.365 1.496 3.365 3.347v8.368c0 1.851-1.504 3.347-3.365 3.347-0.442 0-0.88-0.086-1.288-0.254s-0.78-0.415-1.092-0.726c-0.313-0.311-0.56-0.68-0.729-1.086s-0.256-0.842-0.255-1.281v-8.368h-0z"></path>
<path d="M11.803 6.695c-0.442 0-0.88-0.086-1.288-0.254s-0.78-0.415-1.092-0.726c-0.313-0.311-0.56-0.68-0.729-1.086s-0.256-0.842-0.255-1.281c-0-1.851 1.504-3.347 3.365-3.347s3.365 1.496 3.365 3.347v3.347h-3.365zM11.803 8.394c1.861 0 3.365 1.496 3.365 3.347s-1.504 3.347-3.365 3.347h-8.438c-0.442 0-0.88-0.086-1.288-0.254s-0.78-0.415-1.092-0.726c-0.313-0.311-0.56-0.68-0.729-1.086s-0.256-0.842-0.255-1.281c0-1.851 1.504-3.347 3.365-3.347l8.438-0z"></path>
<path d="M25.288 11.741c0-1.851 1.504-3.347 3.365-3.347s3.365 1.496 3.365 3.347-1.504 3.347-3.365 3.347h-3.365v-3.347zM23.605 11.741c0 1.851-1.504 3.347-3.365 3.347-0.442 0-0.88-0.086-1.288-0.254s-0.78-0.415-1.092-0.726c-0.313-0.311-0.56-0.68-0.729-1.086s-0.256-0.842-0.255-1.281v-8.394c0-1.851 1.504-3.347 3.365-3.347s3.365 1.496 3.365 3.347v8.394l-0-0z"></path>
<path d="M20.24 25.155c1.861 0 3.365 1.496 3.365 3.347s-1.504 3.347-3.365 3.347c-0.442 0-0.88-0.086-1.288-0.254s-0.78-0.415-1.092-0.726c-0.313-0.311-0.56-0.68-0.729-1.087s-0.256-0.842-0.255-1.281v-3.347h3.365zM20.24 23.482c-0.442 0-0.88-0.086-1.288-0.254s-0.78-0.415-1.092-0.726c-0.313-0.311-0.56-0.68-0.729-1.086s-0.256-0.842-0.255-1.281c0-1.851 1.504-3.347 3.365-3.347h8.438c1.861 0 3.365 1.496 3.365 3.347s-1.504 3.347-3.365 3.347l-8.438-0z"></path>
</symbol>
<symbol id="icon-logos_wordpress" viewBox="0 0 141 32">
<path d="M81.83 12.506h-5.554v0.585c1.737 0 2.017 0.369 2.017 2.556v3.942c0 2.186-0.279 2.587-2.017 2.587-1.334-0.185-2.233-0.893-3.475-2.248l-1.427-1.54c1.923-0.339 2.947-1.54 2.947-2.895 0-1.693-1.457-2.987-4.188-2.987h-5.461v0.585c1.737 0 2.017 0.369 2.017 2.556v3.942c0 2.186-0.279 2.587-2.017 2.587v0.585h6.174v-0.585c-1.737 0-2.016-0.4-2.016-2.587v-1.108h0.527l3.444 4.28h9.029c4.437 0 6.361-2.34 6.361-5.143s-1.924-5.112-6.361-5.112zM68.83 17.526v-4.095h1.272c1.396 0 2.017 0.955 2.017 2.063 0 1.078-0.621 2.032-2.017 2.032h-1.272zM81.923 21.807h-0.217c-1.116 0-1.271-0.277-1.271-1.694v-6.683h1.489c3.227 0 3.816 2.34 3.816 4.157 0 1.878-0.589 4.219-3.816 4.219zM47.39 18.666l2.141-6.283c0.621-1.817 0.341-2.34-1.644-2.34v-0.616h5.833v0.616c-1.955 0-2.42 0.462-3.196 2.71l-3.538 10.532h-0.403l-3.165-9.639-3.227 9.639h-0.403l-3.444-10.532c-0.745-2.248-1.241-2.71-3.041-2.71v-0.616h6.888v0.616c-1.831 0-2.328 0.431-1.675 2.34l2.079 6.282 3.134-9.239h0.59l3.072 9.239zM57.939 23.161c-3.413 0-6.205-2.494-6.205-5.543 0-3.018 2.793-5.512 6.205-5.512s6.205 2.495 6.205 5.512c0 3.049-2.792 5.543-6.205 5.543zM57.939 13.061c-2.854 0-3.847 2.556-3.847 4.557 0 2.033 0.993 4.558 3.847 4.558 2.886 0 3.879-2.525 3.879-4.558 0-2.002-0.993-4.557-3.879-4.557z"></path>
<path d="M95.854 22.145v0.616h-7.105v-0.616c2.079 0 2.452-0.523 2.452-3.603v-4.927c0-3.080-0.372-3.572-2.452-3.572v-0.616h6.423c3.196 0 4.964 1.632 4.964 3.819 0 2.125-1.769 3.788-4.964 3.788h-1.769v1.508c0 3.080 0.372 3.604 2.452 3.604zM95.171 10.535h-1.769v5.359h1.769c1.737 0 2.545-1.201 2.545-2.648 0-1.478-0.807-2.71-2.545-2.71zM121.451 19.866l-0.155 0.554c-0.279 1.016-0.621 1.386-2.824 1.386h-0.435c-1.612 0-1.892-0.37-1.892-2.556v-1.417c2.42 0 2.607 0.215 2.607 1.817h0.59v-4.589h-0.59c0 1.601-0.186 1.817-2.607 1.817v-3.449h1.706c2.204 0 2.545 0.37 2.824 1.386l0.156 0.585h0.496l-0.217-2.895h-9.123v0.585c1.737 0 2.017 0.369 2.017 2.556v3.942c0 2-0.238 2.504-1.607 2.576-1.302-0.197-2.196-0.902-3.419-2.237l-1.428-1.54c1.924-0.339 2.948-1.54 2.948-2.895 0-1.693-1.459-2.987-4.189-2.987h-5.46v0.585c1.737 0 2.017 0.369 2.017 2.556v3.942c0 2.186-0.279 2.587-2.017 2.587v0.585h6.175v-0.585c-1.737 0-2.017-0.4-2.017-2.587v-1.108h0.527l3.444 4.28h12.752l0.187-2.894-0.466-0zM105.007 17.526v-4.095h1.272c1.396 0 2.017 0.955 2.017 2.063 0 1.078-0.621 2.032-2.017 2.032h-1.272zM127.749 23.161c-1.241 0-2.327-0.647-2.793-1.047-0.155 0.154-0.434 0.616-0.496 1.047h-0.59v-4.249h0.621c0.248 2.032 1.675 3.233 3.506 3.233 0.993 0 1.799-0.554 1.799-1.478 0-0.8-0.713-1.417-1.985-2.001l-1.769-0.831c-1.241-0.586-2.172-1.602-2.172-2.957 0-1.478 1.396-2.741 3.32-2.741 1.025 0 1.892 0.37 2.42 0.801 0.155-0.123 0.311-0.462 0.404-0.832h0.59v3.635h-0.652c-0.218-1.448-1.024-2.649-2.668-2.649-0.869 0-1.676 0.493-1.676 1.263 0 0.8 0.652 1.231 2.142 1.909l1.705 0.831c1.49 0.708 2.079 1.848 2.079 2.772 0 1.94-1.707 3.295-3.785 3.295v-0zM137.305 23.161c-1.241 0-2.327-0.647-2.793-1.047-0.155 0.154-0.434 0.616-0.496 1.047h-0.589v-4.249h0.62c0.248 2.032 1.676 3.233 3.506 3.233 0.993 0 1.8-0.554 1.8-1.478 0-0.8-0.713-1.417-1.986-2.001l-1.769-0.831c-1.241-0.586-2.172-1.602-2.172-2.957 0-1.478 1.396-2.741 3.32-2.741 1.024 0 1.892 0.37 2.42 0.801 0.155-0.123 0.31-0.462 0.403-0.832h0.59v3.635h-0.652c-0.217-1.448-1.024-2.649-2.668-2.649-0.868 0-1.676 0.493-1.676 1.263 0 0.8 0.652 1.231 2.141 1.909l1.706 0.831c1.489 0.708 2.079 1.848 2.079 2.772 0 1.94-1.706 3.295-3.785 3.295v-0z"></path>
<path d="M2.275 15.886c0 5.395 3.159 10.056 7.739 12.266l-6.55-17.812c-0.785 1.745-1.19 3.635-1.189 5.547v-0zM25.276 15.198c0-1.684-0.61-2.851-1.133-3.759-0.696-1.122-1.348-2.073-1.348-3.196 0-1.253 0.957-2.419 2.306-2.419 0.061 0 0.118 0.008 0.178 0.011-2.443-2.221-5.698-3.577-9.273-3.577-4.797 0-9.017 2.443-11.473 6.143 0.322 0.009 0.626 0.016 0.884 0.016 1.436 0 3.66-0.173 3.66-0.173 0.74-0.043 0.827 1.036 0.088 1.123 0 0-0.744 0.087-1.572 0.13l5 14.762 3.005-8.945-2.139-5.817c-0.739-0.043-1.44-0.13-1.44-0.13-0.74-0.043-0.653-1.166 0.086-1.122 0 0 2.268 0.173 3.617 0.173 1.436 0 3.66-0.173 3.66-0.173 0.74-0.043 0.828 1.035 0.088 1.122 0 0-0.745 0.087-1.572 0.13l4.962 14.65 1.37-4.543c0.594-1.885 1.046-3.239 1.046-4.405zM16.247 17.078l-4.12 11.882c1.26 0.368 2.566 0.555 3.879 0.555 1.553 0 3.095-0.261 4.56-0.773-0.038-0.060-0.071-0.122-0.098-0.188l-4.221-11.477zM28.055 9.348c0.059 0.434 0.093 0.9 0.093 1.401 0 1.383-0.26 2.937-1.044 4.881l-4.194 12.036c4.082-2.363 6.828-6.752 6.828-11.78 0-2.37-0.61-4.598-1.682-6.539zM16.006 0c-8.826 0-16.006 7.126-16.006 15.886 0 8.761 7.181 15.887 16.006 15.887s16.007-7.126 16.007-15.887c0-8.76-7.182-15.886-16.007-15.886zM16.006 31.045c-8.421 0-15.273-6.8-15.273-15.159s6.851-15.158 15.273-15.158c8.421 0 15.272 6.8 15.272 15.158s-6.851 15.159-15.272 15.159z"></path>
</symbol>
<symbol id="icon-search" viewBox="0 0 33 32">
<path fill="none" stroke="#fff" style="stroke: var(--color1, #fff)" stroke-linejoin="round" stroke-linecap="round" stroke-miterlimit="4" stroke-width="2.6667" d="M14.667 25.333c5.891 0 10.667-4.776 10.667-10.667s-4.776-10.667-10.667-10.667c-5.891 0-10.667 4.776-10.667 10.667s4.776 10.667 10.667 10.667z"></path>
<path fill="none" stroke="#fff" style="stroke: var(--color1, #fff)" stroke-linejoin="round" stroke-linecap="round" stroke-miterlimit="4" stroke-width="2.6667" d="M28 28l-5.8-5.8"></path>
</symbol>
<symbol id="icon-twitter" viewBox="0 0 32 32">
<path d="M26.177 10.663c0.017 0.233 0.017 0.465 0.017 0.697 0 7.1-5.404 15.281-15.28 15.281-3.043 0-5.869-0.881-8.248-2.412 0.432 0.049 0.848 0.067 1.297 0.067 2.417 0.006 4.766-0.802 6.668-2.295-1.121-0.020-2.207-0.39-3.108-1.058s-1.57-1.6-1.915-2.666c0.332 0.049 0.665 0.083 1.015 0.083 0.481 0 0.965-0.067 1.415-0.183-1.216-0.246-2.31-0.905-3.095-1.866s-1.213-2.164-1.212-3.405v-0.067c0.716 0.399 1.547 0.648 2.427 0.681-0.737-0.49-1.342-1.155-1.76-1.935s-0.636-1.652-0.635-2.537c0-0.997 0.265-1.912 0.731-2.709 1.35 1.66 3.033 3.018 4.94 3.986s3.998 1.525 6.134 1.634c-0.083-0.4-0.133-0.815-0.133-1.231-0-0.705 0.138-1.404 0.408-2.056s0.665-1.244 1.164-1.743 1.091-0.894 1.743-1.164c0.652-0.27 1.35-0.408 2.056-0.408 1.547 0 2.943 0.648 3.924 1.696 1.202-0.232 2.355-0.671 3.408-1.297-0.401 1.241-1.24 2.293-2.361 2.96 1.066-0.122 2.109-0.402 3.092-0.832-0.735 1.071-1.645 2.010-2.692 2.777z"></path>
</symbol>
</defs>
</svg>
